G04 PROTEUS GERBER X2 FILE*
%TF.GenerationSoftware,Labcenter,Proteus,8.9-SP0-Build27865*%
%TF.CreationDate,2020-09-01T01:31:35+00:00*%
%TF.FileFunction,Copper,L1,Top*%
%TF.FilePolarity,Positive*%
%TF.Part,Single*%
%TF.SameCoordinates,{645d2930-4b01-4661-932c-4068817f58a5}*%
%FSLAX45Y45*%
%MOMM*%
G01*
%TA.AperFunction,ComponentPad*%
%ADD10C,2.032000*%
%TA.AperFunction,OtherPad,Unknown*%
%ADD11C,6.350000*%
%TA.AperFunction,ComponentPad*%
%ADD12R,2.032000X2.032000*%
%TD.AperFunction*%
D10*
X-8500000Y+7234000D03*
X-8500000Y+8250000D03*
X-8000000Y+7234000D03*
X-8000000Y+8250000D03*
X-7500000Y+7234000D03*
X-7500000Y+8250000D03*
X-7000000Y+7234000D03*
X-7000000Y+8250000D03*
X-6500000Y+7234000D03*
X-6500000Y+8250000D03*
X-8320000Y+5970000D03*
X-8320000Y+6986000D03*
X-8000000Y+5750000D03*
X-8000000Y+6766000D03*
X-7500000Y+5750000D03*
X-7500000Y+6766000D03*
X-7000000Y+5750000D03*
X-7000000Y+6766000D03*
X-6500000Y+5750000D03*
X-6500000Y+6766000D03*
D11*
X-6240000Y+4500000D03*
X-9140000Y+7820000D03*
D10*
X-9140000Y+6564000D03*
X-9140000Y+6310000D03*
D12*
X-6908000Y+4320000D03*
X-7162000Y+4320000D03*
X-7416000Y+4320000D03*
X-7670000Y+4320000D03*
X-7924000Y+4320000D03*
X-8178000Y+4320000D03*
X-8432000Y+4320000D03*
X-8686000Y+4320000D03*
X-8940000Y+4320000D03*
X-9194000Y+4320000D03*
X-9192000Y+5060000D03*
X-8938000Y+5060000D03*
X-8684000Y+5060000D03*
X-8430000Y+5060000D03*
X-8176000Y+5060000D03*
X-7922000Y+5060000D03*
X-7668000Y+5060000D03*
X-7414000Y+5060000D03*
X-7160000Y+5060000D03*
X-6906000Y+5060000D03*
M02*
