G04 PROTEUS GERBER X2 FILE*
%TF.GenerationSoftware,Labcenter,Proteus,8.9-SP0-Build27865*%
%TF.CreationDate,2020-09-01T01:31:35+00:00*%
%TF.FileFunction,Copper,L2,Bot*%
%TF.FilePolarity,Positive*%
%TF.Part,Single*%
%TF.SameCoordinates,{645d2930-4b01-4661-932c-4068817f58a5}*%
%FSLAX45Y45*%
%MOMM*%
G01*
%TA.AperFunction,Conductor*%
%ADD13C,1.524000*%
%ADD14C,1.270000*%
%TA.AperFunction,ComponentPad*%
%ADD10C,2.032000*%
%TA.AperFunction,OtherPad,Unknown*%
%ADD11C,6.350000*%
%TA.AperFunction,ComponentPad*%
%ADD12R,2.032000X2.032000*%
%TD.AperFunction*%
D13*
X-7500000Y+6766000D02*
X-7500000Y+7234000D01*
X-7000000Y+6766000D02*
X-7000000Y+7234000D01*
X-6500000Y+6766000D02*
X-6500000Y+7234000D01*
X-8500000Y+8250000D02*
X-8000000Y+8250000D01*
X-7500000Y+8250000D02*
X-7000000Y+8250000D01*
X-6500000Y+8250000D01*
X-8000000Y+6766000D02*
X-8000000Y+7234000D01*
X-8000000Y+7250000D01*
X-8000000Y+8250000D02*
X-7750000Y+8250000D01*
X-7500000Y+8250000D01*
D14*
X-8500000Y+7234000D02*
X-8500000Y+7204000D01*
X-8484000Y+7204000D01*
X-8320000Y+7040000D01*
X-8320000Y+6986000D01*
X-7750000Y+8250000D02*
X-7750000Y+6443492D01*
X-7850547Y+6342945D01*
X-8215890Y+6342945D01*
X-8422945Y+6550000D01*
X-9126000Y+6550000D01*
D13*
X-9140000Y+6564000D01*
D14*
X-6500000Y+5750000D02*
X-6906000Y+5344000D01*
X-6906000Y+5060000D01*
X-7000000Y+5750000D02*
X-7439152Y+5310848D01*
X-7439152Y+5161600D01*
X-7414000Y+5060000D01*
X-7500000Y+5750000D02*
X-7922000Y+5328000D01*
X-7922000Y+5060000D01*
X-8000000Y+5750000D02*
X-8430000Y+5320000D01*
X-8430000Y+5060000D01*
X-9192000Y+5060000D02*
X-8948000Y+5060000D01*
X-8938000Y+5070000D01*
X-8938000Y+5060000D01*
X-8320000Y+5970000D02*
X-8938000Y+5352000D01*
X-8938000Y+5070000D01*
X-8684000Y+5060000D02*
X-8436341Y+5060000D01*
X-8405708Y+5029367D01*
X-8430000Y+5060000D01*
X-7922000Y+5060000D02*
X-8201797Y+5060000D01*
X-8202846Y+5058951D01*
X-8176000Y+5060000D01*
X-7668000Y+5060000D02*
X-7414000Y+5060000D01*
X-7160000Y+5060000D02*
X-6906000Y+5060000D01*
X-6908000Y+4320000D02*
X-7138471Y+4320000D01*
X-7163179Y+4344708D01*
X-7162000Y+4320000D01*
X-7437887Y+4323577D02*
X-7666423Y+4323577D01*
X-7670000Y+4320000D01*
X-7162000Y+4320000D02*
X-7434310Y+4320000D01*
X-7437887Y+4323577D01*
X-7416000Y+4320000D01*
X-7670000Y+4320000D02*
X-7924000Y+4320000D01*
X-8178000Y+4320000D01*
X-8423262Y+4320000D01*
X-8456423Y+4353161D01*
X-8432000Y+4320000D01*
X-8686000Y+4320000D01*
X-8940000Y+4320000D01*
X-9196673Y+4320000D01*
X-9221381Y+4344708D01*
X-9194000Y+4320000D01*
X-9441148Y+4567148D01*
X-9441148Y+5316755D01*
X-9441148Y+5593567D01*
X-9103008Y+5931707D01*
X-9103008Y+6287649D01*
X-9140026Y+6324667D01*
X-9140000Y+6310000D01*
D10*
X-8500000Y+7234000D03*
X-8500000Y+8250000D03*
X-8000000Y+7234000D03*
X-8000000Y+8250000D03*
X-7500000Y+7234000D03*
X-7500000Y+8250000D03*
X-7000000Y+7234000D03*
X-7000000Y+8250000D03*
X-6500000Y+7234000D03*
X-6500000Y+8250000D03*
X-8320000Y+5970000D03*
X-8320000Y+6986000D03*
X-8000000Y+5750000D03*
X-8000000Y+6766000D03*
X-7500000Y+5750000D03*
X-7500000Y+6766000D03*
X-7000000Y+5750000D03*
X-7000000Y+6766000D03*
X-6500000Y+5750000D03*
X-6500000Y+6766000D03*
D11*
X-6240000Y+4500000D03*
X-9140000Y+7820000D03*
D10*
X-9140000Y+6564000D03*
X-9140000Y+6310000D03*
D12*
X-6908000Y+4320000D03*
X-7162000Y+4320000D03*
X-7416000Y+4320000D03*
X-7670000Y+4320000D03*
X-7924000Y+4320000D03*
X-8178000Y+4320000D03*
X-8432000Y+4320000D03*
X-8686000Y+4320000D03*
X-8940000Y+4320000D03*
X-9194000Y+4320000D03*
X-9192000Y+5060000D03*
X-8938000Y+5060000D03*
X-8684000Y+5060000D03*
X-8430000Y+5060000D03*
X-8176000Y+5060000D03*
X-7922000Y+5060000D03*
X-7668000Y+5060000D03*
X-7414000Y+5060000D03*
X-7160000Y+5060000D03*
X-6906000Y+5060000D03*
M02*
