  0
SECTION
  2
HEADER
  9
$ACADVER
  1
AC1009
  9
$INSUNITS
 70
     1
  0
ENDSEC
  0
SECTION
  2
TABLES
  0
TABLE
  2
LAYER
 70
     8
  0
LAYER
  2
0
 62
     7
 70
0
  6
CONTINUOUS
  0
LAYER
  2
1
 62
     1
 70
0
  6
CONTINUOUS
  0
LAYER
  2
2
 62
     2
 70
0
  6
CONTINUOUS
  0
LAYER
  2
3
 62
     3
 70
0
  6
CONTINUOUS
  0
LAYER
  2
4
 62
     4
 70
0
  6
CONTINUOUS
  0
LAYER
  2
5
 62
     5
 70
0
  6
CONTINUOUS
  0
LAYER
  2
6
 62
     6
 70
0
  6
CONTINUOUS
  0
LAYER
  2
7
 62
     7
 70
0
  6
CONTINUOUS
  0
ENDTAB
  0
TABLE
  2
STYLE
 70
     1
  0
STYLE
 70
     0
  2
STANDARD
  3
TXT
 40
0.00
 41
1.00
 42
1.00
 50
0.00
 71
     0
  0
ENDTAB
  0
ENDSEC
  0
SECTION
  2
BLOCKS
  0
BLOCK
  8
0
  2
EPAD
 70
0
 10
0.0
 20
0.0
  0
POLYLINE
  8
0
 66
1
 70
1
 40
0.5
 41
0.5
  0
VERTEX
  8
0
 10
-0.25
 20
0.0
 42
1.0
  0
VERTEX
  8
0
 10
0.25
 20
0.0
 42
1.0
  0
SEQEND
  8
0
  0
ENDBLK
  8
0
  0
BLOCK
  8
0
  2
RPAD
 70
0
 10
0.0
 20
0.0
  0
TRACE
  8
0
 10
-0.5
 20
-0.5
 11
-0.5
 21
0.5
 12
0.5
 22
-0.5
 13
0.5
 23
0.5
  0
ENDBLK
  8
0
  0
ENDSEC
0
SECTION
2
ENTITIES
0
INSERT
8
0
2
EPAD
10
-0.860236
20
0.560630
41
0.090000
42
0.090000
0
INSERT
8
0
2
EPAD
10
-0.860236
20
0.960630
41
0.090000
42
0.090000
0
INSERT
8
0
2
EPAD
10
-0.663386
20
0.560630
41
0.090000
42
0.090000
0
INSERT
8
0
2
EPAD
10
-0.663386
20
0.960630
41
0.090000
42
0.090000
0
INSERT
8
0
2
EPAD
10
-0.466535
20
0.560630
41
0.090000
42
0.090000
0
INSERT
8
0
2
EPAD
10
-0.466535
20
0.960630
41
0.090000
42
0.090000
0
INSERT
8
0
2
EPAD
10
-0.269685
20
0.560630
41
0.090000
42
0.090000
0
INSERT
8
0
2
EPAD
10
-0.269685
20
0.960630
41
0.090000
42
0.090000
0
INSERT
8
0
2
EPAD
10
-0.072835
20
0.560630
41
0.090000
42
0.090000
0
INSERT
8
0
2
EPAD
10
-0.072835
20
0.960630
41
0.090000
42
0.090000
0
INSERT
8
0
2
EPAD
10
-0.789370
20
0.062992
41
0.090000
42
0.090000
0
INSERT
8
0
2
EPAD
10
-0.789370
20
0.462992
41
0.090000
42
0.090000
0
INSERT
8
0
2
EPAD
10
-0.663386
20
-0.023622
41
0.090000
42
0.090000
0
INSERT
8
0
2
EPAD
10
-0.663386
20
0.376378
41
0.090000
42
0.090000
0
INSERT
8
0
2
EPAD
10
-0.466535
20
-0.023622
41
0.090000
42
0.090000
0
INSERT
8
0
2
EPAD
10
-0.466535
20
0.376378
41
0.090000
42
0.090000
0
INSERT
8
0
2
EPAD
10
-0.269685
20
-0.023622
41
0.090000
42
0.090000
0
INSERT
8
0
2
EPAD
10
-0.269685
20
0.376378
41
0.090000
42
0.090000
0
INSERT
8
0
2
EPAD
10
-0.072835
20
-0.023622
41
0.090000
42
0.090000
0
INSERT
8
0
2
EPAD
10
-0.072835
20
0.376378
41
0.090000
42
0.090000
0
INSERT
8
0
2
EPAD
10
0.029528
20
-0.515748
41
0.260000
42
0.260000
0
INSERT
8
0
2
EPAD
10
-1.112205
20
0.791339
41
0.260000
42
0.260000
0
INSERT
8
0
2
EPAD
10
-1.112205
20
0.296850
41
0.090000
42
0.090000
0
INSERT
8
0
2
EPAD
10
-1.112205
20
0.196850
41
0.090000
42
0.090000
0
POLYLINE
8
0
66
1
70
1
40
0
41
0
0
VERTEX
8
0
10
-0.193465
20
-0.631614
0
VERTEX
8
0
10
-0.273465
20
-0.631614
0
VERTEX
8
0
10
-0.274487
20
-0.631515
0
VERTEX
8
0
10
-0.275432
20
-0.631228
0
VERTEX
8
0
10
-0.276283
20
-0.630774
0
VERTEX
8
0
10
-0.277019
20
-0.630169
0
VERTEX
8
0
10
-0.277624
20
-0.629432
0
VERTEX
8
0
10
-0.278079
20
-0.628582
0
VERTEX
8
0
10
-0.278365
20
-0.627637
0
VERTEX
8
0
10
-0.278465
20
-0.626614
0
VERTEX
8
0
10
-0.278465
20
-0.546614
0
VERTEX
8
0
10
-0.278365
20
-0.545592
0
VERTEX
8
0
10
-0.278079
20
-0.544646
0
VERTEX
8
0
10
-0.277624
20
-0.543796
0
VERTEX
8
0
10
-0.277019
20
-0.543059
0
VERTEX
8
0
10
-0.276283
20
-0.542455
0
VERTEX
8
0
10
-0.275432
20
-0.542000
0
VERTEX
8
0
10
-0.274487
20
-0.541714
0
VERTEX
8
0
10
-0.273465
20
-0.541614
0
VERTEX
8
0
10
-0.193465
20
-0.541614
0
VERTEX
8
0
10
-0.192442
20
-0.541714
0
VERTEX
8
0
10
-0.191497
20
-0.542000
0
VERTEX
8
0
10
-0.190646
20
-0.542455
0
VERTEX
8
0
10
-0.189910
20
-0.543059
0
VERTEX
8
0
10
-0.189305
20
-0.543796
0
VERTEX
8
0
10
-0.188850
20
-0.544646
0
VERTEX
8
0
10
-0.188564
20
-0.545592
0
VERTEX
8
0
10
-0.188465
20
-0.546614
0
VERTEX
8
0
10
-0.188465
20
-0.626614
0
VERTEX
8
0
10
-0.188564
20
-0.627637
0
VERTEX
8
0
10
-0.188850
20
-0.628582
0
VERTEX
8
0
10
-0.189305
20
-0.629432
0
VERTEX
8
0
10
-0.189910
20
-0.630169
0
VERTEX
8
0
10
-0.190646
20
-0.630774
0
VERTEX
8
0
10
-0.191497
20
-0.631228
0
VERTEX
8
0
10
-0.192442
20
-0.631515
0
VERTEX
8
0
10
-0.193465
20
-0.631614
0
SEQEND
8
0
0
POLYLINE
8
0
66
1
70
1
40
0
41
0
0
VERTEX
8
0
10
-0.293465
20
-0.631614
0
VERTEX
8
0
10
-0.373465
20
-0.631614
0
VERTEX
8
0
10
-0.374487
20
-0.631515
0
VERTEX
8
0
10
-0.375432
20
-0.631228
0
VERTEX
8
0
10
-0.376283
20
-0.630774
0
VERTEX
8
0
10
-0.377019
20
-0.630169
0
VERTEX
8
0
10
-0.377624
20
-0.629432
0
VERTEX
8
0
10
-0.378079
20
-0.628582
0
VERTEX
8
0
10
-0.378365
20
-0.627637
0
VERTEX
8
0
10
-0.378465
20
-0.626614
0
VERTEX
8
0
10
-0.378465
20
-0.546614
0
VERTEX
8
0
10
-0.378365
20
-0.545592
0
VERTEX
8
0
10
-0.378079
20
-0.544646
0
VERTEX
8
0
10
-0.377624
20
-0.543796
0
VERTEX
8
0
10
-0.377019
20
-0.543059
0
VERTEX
8
0
10
-0.376283
20
-0.542455
0
VERTEX
8
0
10
-0.375432
20
-0.542000
0
VERTEX
8
0
10
-0.374487
20
-0.541714
0
VERTEX
8
0
10
-0.373465
20
-0.541614
0
VERTEX
8
0
10
-0.293465
20
-0.541614
0
VERTEX
8
0
10
-0.292442
20
-0.541714
0
VERTEX
8
0
10
-0.291497
20
-0.542000
0
VERTEX
8
0
10
-0.290646
20
-0.542455
0
VERTEX
8
0
10
-0.289910
20
-0.543059
0
VERTEX
8
0
10
-0.289305
20
-0.543796
0
VERTEX
8
0
10
-0.288850
20
-0.544646
0
VERTEX
8
0
10
-0.288564
20
-0.545592
0
VERTEX
8
0
10
-0.288465
20
-0.546614
0
VERTEX
8
0
10
-0.288465
20
-0.626614
0
VERTEX
8
0
10
-0.288564
20
-0.627637
0
VERTEX
8
0
10
-0.288850
20
-0.628582
0
VERTEX
8
0
10
-0.289305
20
-0.629432
0
VERTEX
8
0
10
-0.289910
20
-0.630169
0
VERTEX
8
0
10
-0.290646
20
-0.630774
0
VERTEX
8
0
10
-0.291497
20
-0.631228
0
VERTEX
8
0
10
-0.292442
20
-0.631515
0
VERTEX
8
0
10
-0.293465
20
-0.631614
0
SEQEND
8
0
0
POLYLINE
8
0
66
1
70
1
40
0
41
0
0
VERTEX
8
0
10
-0.393465
20
-0.631614
0
VERTEX
8
0
10
-0.473465
20
-0.631614
0
VERTEX
8
0
10
-0.474487
20
-0.631515
0
VERTEX
8
0
10
-0.475432
20
-0.631228
0
VERTEX
8
0
10
-0.476283
20
-0.630774
0
VERTEX
8
0
10
-0.477019
20
-0.630169
0
VERTEX
8
0
10
-0.477624
20
-0.629432
0
VERTEX
8
0
10
-0.478079
20
-0.628582
0
VERTEX
8
0
10
-0.478365
20
-0.627637
0
VERTEX
8
0
10
-0.478465
20
-0.626614
0
VERTEX
8
0
10
-0.478465
20
-0.546614
0
VERTEX
8
0
10
-0.478365
20
-0.545592
0
VERTEX
8
0
10
-0.478079
20
-0.544646
0
VERTEX
8
0
10
-0.477624
20
-0.543796
0
VERTEX
8
0
10
-0.477019
20
-0.543059
0
VERTEX
8
0
10
-0.476283
20
-0.542455
0
VERTEX
8
0
10
-0.475432
20
-0.542000
0
VERTEX
8
0
10
-0.474487
20
-0.541714
0
VERTEX
8
0
10
-0.473465
20
-0.541614
0
VERTEX
8
0
10
-0.393465
20
-0.541614
0
VERTEX
8
0
10
-0.392442
20
-0.541714
0
VERTEX
8
0
10
-0.391497
20
-0.542000
0
VERTEX
8
0
10
-0.390646
20
-0.542455
0
VERTEX
8
0
10
-0.389910
20
-0.543059
0
VERTEX
8
0
10
-0.389305
20
-0.543796
0
VERTEX
8
0
10
-0.388850
20
-0.544646
0
VERTEX
8
0
10
-0.388564
20
-0.545592
0
VERTEX
8
0
10
-0.388465
20
-0.546614
0
VERTEX
8
0
10
-0.388465
20
-0.626614
0
VERTEX
8
0
10
-0.388564
20
-0.627637
0
VERTEX
8
0
10
-0.388850
20
-0.628582
0
VERTEX
8
0
10
-0.389305
20
-0.629432
0
VERTEX
8
0
10
-0.389910
20
-0.630169
0
VERTEX
8
0
10
-0.390646
20
-0.630774
0
VERTEX
8
0
10
-0.391497
20
-0.631228
0
VERTEX
8
0
10
-0.392442
20
-0.631515
0
VERTEX
8
0
10
-0.393465
20
-0.631614
0
SEQEND
8
0
0
POLYLINE
8
0
66
1
70
1
40
0
41
0
0
VERTEX
8
0
10
-0.493465
20
-0.631614
0
VERTEX
8
0
10
-0.573465
20
-0.631614
0
VERTEX
8
0
10
-0.574487
20
-0.631515
0
VERTEX
8
0
10
-0.575432
20
-0.631228
0
VERTEX
8
0
10
-0.576283
20
-0.630774
0
VERTEX
8
0
10
-0.577019
20
-0.630169
0
VERTEX
8
0
10
-0.577624
20
-0.629432
0
VERTEX
8
0
10
-0.578079
20
-0.628582
0
VERTEX
8
0
10
-0.578365
20
-0.627637
0
VERTEX
8
0
10
-0.578465
20
-0.626614
0
VERTEX
8
0
10
-0.578465
20
-0.546614
0
VERTEX
8
0
10
-0.578365
20
-0.545592
0
VERTEX
8
0
10
-0.578079
20
-0.544646
0
VERTEX
8
0
10
-0.577624
20
-0.543796
0
VERTEX
8
0
10
-0.577019
20
-0.543059
0
VERTEX
8
0
10
-0.576283
20
-0.542455
0
VERTEX
8
0
10
-0.575432
20
-0.542000
0
VERTEX
8
0
10
-0.574487
20
-0.541714
0
VERTEX
8
0
10
-0.573465
20
-0.541614
0
VERTEX
8
0
10
-0.493465
20
-0.541614
0
VERTEX
8
0
10
-0.492442
20
-0.541714
0
VERTEX
8
0
10
-0.491497
20
-0.542000
0
VERTEX
8
0
10
-0.490646
20
-0.542455
0
VERTEX
8
0
10
-0.489910
20
-0.543059
0
VERTEX
8
0
10
-0.489305
20
-0.543796
0
VERTEX
8
0
10
-0.488850
20
-0.544646
0
VERTEX
8
0
10
-0.488564
20
-0.545592
0
VERTEX
8
0
10
-0.488465
20
-0.546614
0
VERTEX
8
0
10
-0.488465
20
-0.626614
0
VERTEX
8
0
10
-0.488564
20
-0.627637
0
VERTEX
8
0
10
-0.488850
20
-0.628582
0
VERTEX
8
0
10
-0.489305
20
-0.629432
0
VERTEX
8
0
10
-0.489910
20
-0.630169
0
VERTEX
8
0
10
-0.490646
20
-0.630774
0
VERTEX
8
0
10
-0.491497
20
-0.631228
0
VERTEX
8
0
10
-0.492442
20
-0.631515
0
VERTEX
8
0
10
-0.493465
20
-0.631614
0
SEQEND
8
0
0
POLYLINE
8
0
66
1
70
1
40
0
41
0
0
VERTEX
8
0
10
-0.593465
20
-0.631614
0
VERTEX
8
0
10
-0.673465
20
-0.631614
0
VERTEX
8
0
10
-0.674487
20
-0.631515
0
VERTEX
8
0
10
-0.675432
20
-0.631228
0
VERTEX
8
0
10
-0.676283
20
-0.630774
0
VERTEX
8
0
10
-0.677019
20
-0.630169
0
VERTEX
8
0
10
-0.677624
20
-0.629432
0
VERTEX
8
0
10
-0.678079
20
-0.628582
0
VERTEX
8
0
10
-0.678365
20
-0.627637
0
VERTEX
8
0
10
-0.678465
20
-0.626614
0
VERTEX
8
0
10
-0.678465
20
-0.546614
0
VERTEX
8
0
10
-0.678365
20
-0.545592
0
VERTEX
8
0
10
-0.678079
20
-0.544646
0
VERTEX
8
0
10
-0.677624
20
-0.543796
0
VERTEX
8
0
10
-0.677019
20
-0.543059
0
VERTEX
8
0
10
-0.676283
20
-0.542455
0
VERTEX
8
0
10
-0.675432
20
-0.542000
0
VERTEX
8
0
10
-0.674487
20
-0.541714
0
VERTEX
8
0
10
-0.673465
20
-0.541614
0
VERTEX
8
0
10
-0.593465
20
-0.541614
0
VERTEX
8
0
10
-0.592442
20
-0.541714
0
VERTEX
8
0
10
-0.591497
20
-0.542000
0
VERTEX
8
0
10
-0.590646
20
-0.542455
0
VERTEX
8
0
10
-0.589910
20
-0.543059
0
VERTEX
8
0
10
-0.589305
20
-0.543796
0
VERTEX
8
0
10
-0.588850
20
-0.544646
0
VERTEX
8
0
10
-0.588564
20
-0.545592
0
VERTEX
8
0
10
-0.588465
20
-0.546614
0
VERTEX
8
0
10
-0.588465
20
-0.626614
0
VERTEX
8
0
10
-0.588564
20
-0.627637
0
VERTEX
8
0
10
-0.588850
20
-0.628582
0
VERTEX
8
0
10
-0.589305
20
-0.629432
0
VERTEX
8
0
10
-0.589910
20
-0.630169
0
VERTEX
8
0
10
-0.590646
20
-0.630774
0
VERTEX
8
0
10
-0.591497
20
-0.631228
0
VERTEX
8
0
10
-0.592442
20
-0.631515
0
VERTEX
8
0
10
-0.593465
20
-0.631614
0
SEQEND
8
0
0
POLYLINE
8
0
66
1
70
1
40
0
41
0
0
VERTEX
8
0
10
-0.693465
20
-0.631614
0
VERTEX
8
0
10
-0.773465
20
-0.631614
0
VERTEX
8
0
10
-0.774487
20
-0.631515
0
VERTEX
8
0
10
-0.775432
20
-0.631228
0
VERTEX
8
0
10
-0.776283
20
-0.630774
0
VERTEX
8
0
10
-0.777019
20
-0.630169
0
VERTEX
8
0
10
-0.777624
20
-0.629432
0
VERTEX
8
0
10
-0.778079
20
-0.628582
0
VERTEX
8
0
10
-0.778365
20
-0.627637
0
VERTEX
8
0
10
-0.778465
20
-0.626614
0
VERTEX
8
0
10
-0.778465
20
-0.546614
0
VERTEX
8
0
10
-0.778365
20
-0.545592
0
VERTEX
8
0
10
-0.778079
20
-0.544646
0
VERTEX
8
0
10
-0.777624
20
-0.543796
0
VERTEX
8
0
10
-0.777019
20
-0.543059
0
VERTEX
8
0
10
-0.776283
20
-0.542455
0
VERTEX
8
0
10
-0.775432
20
-0.542000
0
VERTEX
8
0
10
-0.774487
20
-0.541714
0
VERTEX
8
0
10
-0.773465
20
-0.541614
0
VERTEX
8
0
10
-0.693465
20
-0.541614
0
VERTEX
8
0
10
-0.692442
20
-0.541714
0
VERTEX
8
0
10
-0.691497
20
-0.542000
0
VERTEX
8
0
10
-0.690646
20
-0.542455
0
VERTEX
8
0
10
-0.689910
20
-0.543059
0
VERTEX
8
0
10
-0.689305
20
-0.543796
0
VERTEX
8
0
10
-0.688850
20
-0.544646
0
VERTEX
8
0
10
-0.688564
20
-0.545592
0
VERTEX
8
0
10
-0.688465
20
-0.546614
0
VERTEX
8
0
10
-0.688465
20
-0.626614
0
VERTEX
8
0
10
-0.688564
20
-0.627637
0
VERTEX
8
0
10
-0.688850
20
-0.628582
0
VERTEX
8
0
10
-0.689305
20
-0.629432
0
VERTEX
8
0
10
-0.689910
20
-0.630169
0
VERTEX
8
0
10
-0.690646
20
-0.630774
0
VERTEX
8
0
10
-0.691497
20
-0.631228
0
VERTEX
8
0
10
-0.692442
20
-0.631515
0
VERTEX
8
0
10
-0.693465
20
-0.631614
0
SEQEND
8
0
0
POLYLINE
8
0
66
1
70
1
40
0
41
0
0
VERTEX
8
0
10
-0.793465
20
-0.631614
0
VERTEX
8
0
10
-0.873465
20
-0.631614
0
VERTEX
8
0
10
-0.874487
20
-0.631515
0
VERTEX
8
0
10
-0.875432
20
-0.631228
0
VERTEX
8
0
10
-0.876283
20
-0.630774
0
VERTEX
8
0
10
-0.877019
20
-0.630169
0
VERTEX
8
0
10
-0.877624
20
-0.629432
0
VERTEX
8
0
10
-0.878079
20
-0.628582
0
VERTEX
8
0
10
-0.878365
20
-0.627637
0
VERTEX
8
0
10
-0.878465
20
-0.626614
0
VERTEX
8
0
10
-0.878465
20
-0.546614
0
VERTEX
8
0
10
-0.878365
20
-0.545592
0
VERTEX
8
0
10
-0.878079
20
-0.544646
0
VERTEX
8
0
10
-0.877624
20
-0.543796
0
VERTEX
8
0
10
-0.877019
20
-0.543059
0
VERTEX
8
0
10
-0.876283
20
-0.542455
0
VERTEX
8
0
10
-0.875432
20
-0.542000
0
VERTEX
8
0
10
-0.874487
20
-0.541714
0
VERTEX
8
0
10
-0.873465
20
-0.541614
0
VERTEX
8
0
10
-0.793465
20
-0.541614
0
VERTEX
8
0
10
-0.792442
20
-0.541714
0
VERTEX
8
0
10
-0.791497
20
-0.542000
0
VERTEX
8
0
10
-0.790646
20
-0.542455
0
VERTEX
8
0
10
-0.789910
20
-0.543059
0
VERTEX
8
0
10
-0.789305
20
-0.543796
0
VERTEX
8
0
10
-0.788850
20
-0.544646
0
VERTEX
8
0
10
-0.788564
20
-0.545592
0
VERTEX
8
0
10
-0.788465
20
-0.546614
0
VERTEX
8
0
10
-0.788465
20
-0.626614
0
VERTEX
8
0
10
-0.788564
20
-0.627637
0
VERTEX
8
0
10
-0.788850
20
-0.628582
0
VERTEX
8
0
10
-0.789305
20
-0.629432
0
VERTEX
8
0
10
-0.789910
20
-0.630169
0
VERTEX
8
0
10
-0.790646
20
-0.630774
0
VERTEX
8
0
10
-0.791497
20
-0.631228
0
VERTEX
8
0
10
-0.792442
20
-0.631515
0
VERTEX
8
0
10
-0.793465
20
-0.631614
0
SEQEND
8
0
0
POLYLINE
8
0
66
1
70
1
40
0
41
0
0
VERTEX
8
0
10
-0.893465
20
-0.631614
0
VERTEX
8
0
10
-0.973465
20
-0.631614
0
VERTEX
8
0
10
-0.974487
20
-0.631515
0
VERTEX
8
0
10
-0.975432
20
-0.631228
0
VERTEX
8
0
10
-0.976283
20
-0.630774
0
VERTEX
8
0
10
-0.977019
20
-0.630169
0
VERTEX
8
0
10
-0.977624
20
-0.629432
0
VERTEX
8
0
10
-0.978079
20
-0.628582
0
VERTEX
8
0
10
-0.978365
20
-0.627637
0
VERTEX
8
0
10
-0.978465
20
-0.626614
0
VERTEX
8
0
10
-0.978465
20
-0.546614
0
VERTEX
8
0
10
-0.978365
20
-0.545592
0
VERTEX
8
0
10
-0.978079
20
-0.544646
0
VERTEX
8
0
10
-0.977624
20
-0.543796
0
VERTEX
8
0
10
-0.977019
20
-0.543059
0
VERTEX
8
0
10
-0.976283
20
-0.542455
0
VERTEX
8
0
10
-0.975432
20
-0.542000
0
VERTEX
8
0
10
-0.974487
20
-0.541714
0
VERTEX
8
0
10
-0.973465
20
-0.541614
0
VERTEX
8
0
10
-0.893465
20
-0.541614
0
VERTEX
8
0
10
-0.892442
20
-0.541714
0
VERTEX
8
0
10
-0.891497
20
-0.542000
0
VERTEX
8
0
10
-0.890646
20
-0.542455
0
VERTEX
8
0
10
-0.889910
20
-0.543059
0
VERTEX
8
0
10
-0.889305
20
-0.543796
0
VERTEX
8
0
10
-0.888850
20
-0.544646
0
VERTEX
8
0
10
-0.888564
20
-0.545592
0
VERTEX
8
0
10
-0.888465
20
-0.546614
0
VERTEX
8
0
10
-0.888465
20
-0.626614
0
VERTEX
8
0
10
-0.888564
20
-0.627637
0
VERTEX
8
0
10
-0.888850
20
-0.628582
0
VERTEX
8
0
10
-0.889305
20
-0.629432
0
VERTEX
8
0
10
-0.889910
20
-0.630169
0
VERTEX
8
0
10
-0.890646
20
-0.630774
0
VERTEX
8
0
10
-0.891497
20
-0.631228
0
VERTEX
8
0
10
-0.892442
20
-0.631515
0
VERTEX
8
0
10
-0.893465
20
-0.631614
0
SEQEND
8
0
0
POLYLINE
8
0
66
1
70
1
40
0
41
0
0
VERTEX
8
0
10
-0.993465
20
-0.631614
0
VERTEX
8
0
10
-1.073465
20
-0.631614
0
VERTEX
8
0
10
-1.074487
20
-0.631515
0
VERTEX
8
0
10
-1.075432
20
-0.631228
0
VERTEX
8
0
10
-1.076283
20
-0.630774
0
VERTEX
8
0
10
-1.077019
20
-0.630169
0
VERTEX
8
0
10
-1.077624
20
-0.629432
0
VERTEX
8
0
10
-1.078079
20
-0.628582
0
VERTEX
8
0
10
-1.078365
20
-0.627637
0
VERTEX
8
0
10
-1.078465
20
-0.626614
0
VERTEX
8
0
10
-1.078465
20
-0.546614
0
VERTEX
8
0
10
-1.078365
20
-0.545592
0
VERTEX
8
0
10
-1.078079
20
-0.544646
0
VERTEX
8
0
10
-1.077624
20
-0.543796
0
VERTEX
8
0
10
-1.077019
20
-0.543059
0
VERTEX
8
0
10
-1.076283
20
-0.542455
0
VERTEX
8
0
10
-1.075432
20
-0.542000
0
VERTEX
8
0
10
-1.074487
20
-0.541714
0
VERTEX
8
0
10
-1.073465
20
-0.541614
0
VERTEX
8
0
10
-0.993465
20
-0.541614
0
VERTEX
8
0
10
-0.992442
20
-0.541714
0
VERTEX
8
0
10
-0.991497
20
-0.542000
0
VERTEX
8
0
10
-0.990646
20
-0.542455
0
VERTEX
8
0
10
-0.989910
20
-0.543059
0
VERTEX
8
0
10
-0.989305
20
-0.543796
0
VERTEX
8
0
10
-0.988850
20
-0.544646
0
VERTEX
8
0
10
-0.988564
20
-0.545592
0
VERTEX
8
0
10
-0.988465
20
-0.546614
0
VERTEX
8
0
10
-0.988465
20
-0.626614
0
VERTEX
8
0
10
-0.988564
20
-0.627637
0
VERTEX
8
0
10
-0.988850
20
-0.628582
0
VERTEX
8
0
10
-0.989305
20
-0.629432
0
VERTEX
8
0
10
-0.989910
20
-0.630169
0
VERTEX
8
0
10
-0.990646
20
-0.630774
0
VERTEX
8
0
10
-0.991497
20
-0.631228
0
VERTEX
8
0
10
-0.992442
20
-0.631515
0
VERTEX
8
0
10
-0.993465
20
-0.631614
0
SEQEND
8
0
0
POLYLINE
8
0
66
1
70
1
40
0
41
0
0
VERTEX
8
0
10
-1.093465
20
-0.631614
0
VERTEX
8
0
10
-1.173465
20
-0.631614
0
VERTEX
8
0
10
-1.174487
20
-0.631515
0
VERTEX
8
0
10
-1.175432
20
-0.631228
0
VERTEX
8
0
10
-1.176283
20
-0.630774
0
VERTEX
8
0
10
-1.177019
20
-0.630169
0
VERTEX
8
0
10
-1.177624
20
-0.629432
0
VERTEX
8
0
10
-1.178079
20
-0.628582
0
VERTEX
8
0
10
-1.178365
20
-0.627637
0
VERTEX
8
0
10
-1.178465
20
-0.626614
0
VERTEX
8
0
10
-1.178465
20
-0.546614
0
VERTEX
8
0
10
-1.178365
20
-0.545592
0
VERTEX
8
0
10
-1.178079
20
-0.544646
0
VERTEX
8
0
10
-1.177624
20
-0.543796
0
VERTEX
8
0
10
-1.177019
20
-0.543059
0
VERTEX
8
0
10
-1.176283
20
-0.542455
0
VERTEX
8
0
10
-1.175432
20
-0.542000
0
VERTEX
8
0
10
-1.174487
20
-0.541714
0
VERTEX
8
0
10
-1.173465
20
-0.541614
0
VERTEX
8
0
10
-1.093465
20
-0.541614
0
VERTEX
8
0
10
-1.092442
20
-0.541714
0
VERTEX
8
0
10
-1.091497
20
-0.542000
0
VERTEX
8
0
10
-1.090647
20
-0.542455
0
VERTEX
8
0
10
-1.089910
20
-0.543059
0
VERTEX
8
0
10
-1.089305
20
-0.543796
0
VERTEX
8
0
10
-1.088850
20
-0.544646
0
VERTEX
8
0
10
-1.088564
20
-0.545592
0
VERTEX
8
0
10
-1.088465
20
-0.546614
0
VERTEX
8
0
10
-1.088465
20
-0.626614
0
VERTEX
8
0
10
-1.088564
20
-0.627637
0
VERTEX
8
0
10
-1.088850
20
-0.628582
0
VERTEX
8
0
10
-1.089305
20
-0.629432
0
VERTEX
8
0
10
-1.089910
20
-0.630169
0
VERTEX
8
0
10
-1.090647
20
-0.630774
0
VERTEX
8
0
10
-1.091497
20
-0.631228
0
VERTEX
8
0
10
-1.092442
20
-0.631515
0
VERTEX
8
0
10
-1.093465
20
-0.631614
0
SEQEND
8
0
0
POLYLINE
8
0
66
1
70
1
40
0
41
0
0
VERTEX
8
0
10
-1.092677
20
-0.340276
0
VERTEX
8
0
10
-1.172677
20
-0.340276
0
VERTEX
8
0
10
-1.173700
20
-0.340176
0
VERTEX
8
0
10
-1.174645
20
-0.339890
0
VERTEX
8
0
10
-1.175495
20
-0.339435
0
VERTEX
8
0
10
-1.176232
20
-0.338830
0
VERTEX
8
0
10
-1.176837
20
-0.338093
0
VERTEX
8
0
10
-1.177291
20
-0.337243
0
VERTEX
8
0
10
-1.177578
20
-0.336298
0
VERTEX
8
0
10
-1.177677
20
-0.335276
0
VERTEX
8
0
10
-1.177677
20
-0.255276
0
VERTEX
8
0
10
-1.177578
20
-0.254253
0
VERTEX
8
0
10
-1.177291
20
-0.253308
0
VERTEX
8
0
10
-1.176837
20
-0.252458
0
VERTEX
8
0
10
-1.176232
20
-0.251721
0
VERTEX
8
0
10
-1.175495
20
-0.251116
0
VERTEX
8
0
10
-1.174645
20
-0.250661
0
VERTEX
8
0
10
-1.173700
20
-0.250375
0
VERTEX
8
0
10
-1.172677
20
-0.250276
0
VERTEX
8
0
10
-1.092677
20
-0.250276
0
VERTEX
8
0
10
-1.091655
20
-0.250375
0
VERTEX
8
0
10
-1.090709
20
-0.250661
0
VERTEX
8
0
10
-1.089859
20
-0.251116
0
VERTEX
8
0
10
-1.089122
20
-0.251721
0
VERTEX
8
0
10
-1.088518
20
-0.252458
0
VERTEX
8
0
10
-1.088063
20
-0.253308
0
VERTEX
8
0
10
-1.087777
20
-0.254253
0
VERTEX
8
0
10
-1.087677
20
-0.255276
0
VERTEX
8
0
10
-1.087677
20
-0.335276
0
VERTEX
8
0
10
-1.087777
20
-0.336298
0
VERTEX
8
0
10
-1.088063
20
-0.337243
0
VERTEX
8
0
10
-1.088518
20
-0.338093
0
VERTEX
8
0
10
-1.089122
20
-0.338830
0
VERTEX
8
0
10
-1.089859
20
-0.339435
0
VERTEX
8
0
10
-1.090709
20
-0.339890
0
VERTEX
8
0
10
-1.091655
20
-0.340176
0
VERTEX
8
0
10
-1.092677
20
-0.340276
0
SEQEND
8
0
0
POLYLINE
8
0
66
1
70
1
40
0
41
0
0
VERTEX
8
0
10
-0.992677
20
-0.340276
0
VERTEX
8
0
10
-1.072677
20
-0.340276
0
VERTEX
8
0
10
-1.073700
20
-0.340176
0
VERTEX
8
0
10
-1.074645
20
-0.339890
0
VERTEX
8
0
10
-1.075495
20
-0.339435
0
VERTEX
8
0
10
-1.076232
20
-0.338830
0
VERTEX
8
0
10
-1.076837
20
-0.338093
0
VERTEX
8
0
10
-1.077291
20
-0.337243
0
VERTEX
8
0
10
-1.077578
20
-0.336298
0
VERTEX
8
0
10
-1.077677
20
-0.335276
0
VERTEX
8
0
10
-1.077677
20
-0.255276
0
VERTEX
8
0
10
-1.077578
20
-0.254253
0
VERTEX
8
0
10
-1.077291
20
-0.253308
0
VERTEX
8
0
10
-1.076837
20
-0.252458
0
VERTEX
8
0
10
-1.076232
20
-0.251721
0
VERTEX
8
0
10
-1.075495
20
-0.251116
0
VERTEX
8
0
10
-1.074645
20
-0.250661
0
VERTEX
8
0
10
-1.073700
20
-0.250375
0
VERTEX
8
0
10
-1.072677
20
-0.250276
0
VERTEX
8
0
10
-0.992677
20
-0.250276
0
VERTEX
8
0
10
-0.991655
20
-0.250375
0
VERTEX
8
0
10
-0.990709
20
-0.250661
0
VERTEX
8
0
10
-0.989859
20
-0.251116
0
VERTEX
8
0
10
-0.989122
20
-0.251721
0
VERTEX
8
0
10
-0.988518
20
-0.252458
0
VERTEX
8
0
10
-0.988063
20
-0.253308
0
VERTEX
8
0
10
-0.987777
20
-0.254253
0
VERTEX
8
0
10
-0.987677
20
-0.255276
0
VERTEX
8
0
10
-0.987677
20
-0.335276
0
VERTEX
8
0
10
-0.987777
20
-0.336298
0
VERTEX
8
0
10
-0.988063
20
-0.337243
0
VERTEX
8
0
10
-0.988518
20
-0.338093
0
VERTEX
8
0
10
-0.989122
20
-0.338830
0
VERTEX
8
0
10
-0.989859
20
-0.339435
0
VERTEX
8
0
10
-0.990709
20
-0.339890
0
VERTEX
8
0
10
-0.991655
20
-0.340176
0
VERTEX
8
0
10
-0.992677
20
-0.340276
0
SEQEND
8
0
0
POLYLINE
8
0
66
1
70
1
40
0
41
0
0
VERTEX
8
0
10
-0.892677
20
-0.340276
0
VERTEX
8
0
10
-0.972677
20
-0.340276
0
VERTEX
8
0
10
-0.973700
20
-0.340176
0
VERTEX
8
0
10
-0.974645
20
-0.339890
0
VERTEX
8
0
10
-0.975495
20
-0.339435
0
VERTEX
8
0
10
-0.976232
20
-0.338830
0
VERTEX
8
0
10
-0.976837
20
-0.338093
0
VERTEX
8
0
10
-0.977291
20
-0.337243
0
VERTEX
8
0
10
-0.977578
20
-0.336298
0
VERTEX
8
0
10
-0.977677
20
-0.335276
0
VERTEX
8
0
10
-0.977677
20
-0.255276
0
VERTEX
8
0
10
-0.977578
20
-0.254253
0
VERTEX
8
0
10
-0.977291
20
-0.253308
0
VERTEX
8
0
10
-0.976837
20
-0.252458
0
VERTEX
8
0
10
-0.976232
20
-0.251721
0
VERTEX
8
0
10
-0.975495
20
-0.251116
0
VERTEX
8
0
10
-0.974645
20
-0.250661
0
VERTEX
8
0
10
-0.973700
20
-0.250375
0
VERTEX
8
0
10
-0.972677
20
-0.250276
0
VERTEX
8
0
10
-0.892677
20
-0.250276
0
VERTEX
8
0
10
-0.891655
20
-0.250375
0
VERTEX
8
0
10
-0.890709
20
-0.250661
0
VERTEX
8
0
10
-0.889859
20
-0.251116
0
VERTEX
8
0
10
-0.889122
20
-0.251721
0
VERTEX
8
0
10
-0.888518
20
-0.252458
0
VERTEX
8
0
10
-0.888063
20
-0.253308
0
VERTEX
8
0
10
-0.887777
20
-0.254253
0
VERTEX
8
0
10
-0.887677
20
-0.255276
0
VERTEX
8
0
10
-0.887677
20
-0.335276
0
VERTEX
8
0
10
-0.887777
20
-0.336298
0
VERTEX
8
0
10
-0.888063
20
-0.337243
0
VERTEX
8
0
10
-0.888518
20
-0.338093
0
VERTEX
8
0
10
-0.889122
20
-0.338830
0
VERTEX
8
0
10
-0.889859
20
-0.339435
0
VERTEX
8
0
10
-0.890709
20
-0.339890
0
VERTEX
8
0
10
-0.891655
20
-0.340176
0
VERTEX
8
0
10
-0.892677
20
-0.340276
0
SEQEND
8
0
0
POLYLINE
8
0
66
1
70
1
40
0
41
0
0
VERTEX
8
0
10
-0.792677
20
-0.340276
0
VERTEX
8
0
10
-0.872677
20
-0.340276
0
VERTEX
8
0
10
-0.873700
20
-0.340176
0
VERTEX
8
0
10
-0.874645
20
-0.339890
0
VERTEX
8
0
10
-0.875495
20
-0.339435
0
VERTEX
8
0
10
-0.876232
20
-0.338830
0
VERTEX
8
0
10
-0.876837
20
-0.338093
0
VERTEX
8
0
10
-0.877291
20
-0.337243
0
VERTEX
8
0
10
-0.877578
20
-0.336298
0
VERTEX
8
0
10
-0.877677
20
-0.335276
0
VERTEX
8
0
10
-0.877677
20
-0.255276
0
VERTEX
8
0
10
-0.877578
20
-0.254253
0
VERTEX
8
0
10
-0.877291
20
-0.253308
0
VERTEX
8
0
10
-0.876837
20
-0.252458
0
VERTEX
8
0
10
-0.876232
20
-0.251721
0
VERTEX
8
0
10
-0.875495
20
-0.251116
0
VERTEX
8
0
10
-0.874645
20
-0.250661
0
VERTEX
8
0
10
-0.873700
20
-0.250375
0
VERTEX
8
0
10
-0.872677
20
-0.250276
0
VERTEX
8
0
10
-0.792677
20
-0.250276
0
VERTEX
8
0
10
-0.791655
20
-0.250375
0
VERTEX
8
0
10
-0.790709
20
-0.250661
0
VERTEX
8
0
10
-0.789859
20
-0.251116
0
VERTEX
8
0
10
-0.789122
20
-0.251721
0
VERTEX
8
0
10
-0.788518
20
-0.252458
0
VERTEX
8
0
10
-0.788063
20
-0.253308
0
VERTEX
8
0
10
-0.787777
20
-0.254253
0
VERTEX
8
0
10
-0.787677
20
-0.255276
0
VERTEX
8
0
10
-0.787677
20
-0.335276
0
VERTEX
8
0
10
-0.787777
20
-0.336298
0
VERTEX
8
0
10
-0.788063
20
-0.337243
0
VERTEX
8
0
10
-0.788518
20
-0.338093
0
VERTEX
8
0
10
-0.789122
20
-0.338830
0
VERTEX
8
0
10
-0.789859
20
-0.339435
0
VERTEX
8
0
10
-0.790709
20
-0.339890
0
VERTEX
8
0
10
-0.791655
20
-0.340176
0
VERTEX
8
0
10
-0.792677
20
-0.340276
0
SEQEND
8
0
0
POLYLINE
8
0
66
1
70
1
40
0
41
0
0
VERTEX
8
0
10
-0.692677
20
-0.340276
0
VERTEX
8
0
10
-0.772677
20
-0.340276
0
VERTEX
8
0
10
-0.773700
20
-0.340176
0
VERTEX
8
0
10
-0.774645
20
-0.339890
0
VERTEX
8
0
10
-0.775495
20
-0.339435
0
VERTEX
8
0
10
-0.776232
20
-0.338830
0
VERTEX
8
0
10
-0.776837
20
-0.338093
0
VERTEX
8
0
10
-0.777291
20
-0.337243
0
VERTEX
8
0
10
-0.777578
20
-0.336298
0
VERTEX
8
0
10
-0.777677
20
-0.335276
0
VERTEX
8
0
10
-0.777677
20
-0.255276
0
VERTEX
8
0
10
-0.777578
20
-0.254253
0
VERTEX
8
0
10
-0.777291
20
-0.253308
0
VERTEX
8
0
10
-0.776837
20
-0.252458
0
VERTEX
8
0
10
-0.776232
20
-0.251721
0
VERTEX
8
0
10
-0.775495
20
-0.251116
0
VERTEX
8
0
10
-0.774645
20
-0.250661
0
VERTEX
8
0
10
-0.773700
20
-0.250375
0
VERTEX
8
0
10
-0.772677
20
-0.250276
0
VERTEX
8
0
10
-0.692677
20
-0.250276
0
VERTEX
8
0
10
-0.691655
20
-0.250375
0
VERTEX
8
0
10
-0.690709
20
-0.250661
0
VERTEX
8
0
10
-0.689859
20
-0.251116
0
VERTEX
8
0
10
-0.689122
20
-0.251721
0
VERTEX
8
0
10
-0.688518
20
-0.252458
0
VERTEX
8
0
10
-0.688063
20
-0.253308
0
VERTEX
8
0
10
-0.687777
20
-0.254253
0
VERTEX
8
0
10
-0.687677
20
-0.255276
0
VERTEX
8
0
10
-0.687677
20
-0.335276
0
VERTEX
8
0
10
-0.687777
20
-0.336298
0
VERTEX
8
0
10
-0.688063
20
-0.337243
0
VERTEX
8
0
10
-0.688518
20
-0.338093
0
VERTEX
8
0
10
-0.689122
20
-0.338830
0
VERTEX
8
0
10
-0.689859
20
-0.339435
0
VERTEX
8
0
10
-0.690709
20
-0.339890
0
VERTEX
8
0
10
-0.691655
20
-0.340176
0
VERTEX
8
0
10
-0.692677
20
-0.340276
0
SEQEND
8
0
0
POLYLINE
8
0
66
1
70
1
40
0
41
0
0
VERTEX
8
0
10
-0.592677
20
-0.340276
0
VERTEX
8
0
10
-0.672677
20
-0.340276
0
VERTEX
8
0
10
-0.673700
20
-0.340176
0
VERTEX
8
0
10
-0.674645
20
-0.339890
0
VERTEX
8
0
10
-0.675495
20
-0.339435
0
VERTEX
8
0
10
-0.676232
20
-0.338830
0
VERTEX
8
0
10
-0.676837
20
-0.338093
0
VERTEX
8
0
10
-0.677291
20
-0.337243
0
VERTEX
8
0
10
-0.677578
20
-0.336298
0
VERTEX
8
0
10
-0.677677
20
-0.335276
0
VERTEX
8
0
10
-0.677677
20
-0.255276
0
VERTEX
8
0
10
-0.677578
20
-0.254253
0
VERTEX
8
0
10
-0.677291
20
-0.253308
0
VERTEX
8
0
10
-0.676837
20
-0.252458
0
VERTEX
8
0
10
-0.676232
20
-0.251721
0
VERTEX
8
0
10
-0.675495
20
-0.251116
0
VERTEX
8
0
10
-0.674645
20
-0.250661
0
VERTEX
8
0
10
-0.673700
20
-0.250375
0
VERTEX
8
0
10
-0.672677
20
-0.250276
0
VERTEX
8
0
10
-0.592677
20
-0.250276
0
VERTEX
8
0
10
-0.591655
20
-0.250375
0
VERTEX
8
0
10
-0.590709
20
-0.250661
0
VERTEX
8
0
10
-0.589859
20
-0.251116
0
VERTEX
8
0
10
-0.589122
20
-0.251721
0
VERTEX
8
0
10
-0.588518
20
-0.252458
0
VERTEX
8
0
10
-0.588063
20
-0.253308
0
VERTEX
8
0
10
-0.587777
20
-0.254253
0
VERTEX
8
0
10
-0.587677
20
-0.255276
0
VERTEX
8
0
10
-0.587677
20
-0.335276
0
VERTEX
8
0
10
-0.587777
20
-0.336298
0
VERTEX
8
0
10
-0.588063
20
-0.337243
0
VERTEX
8
0
10
-0.588518
20
-0.338093
0
VERTEX
8
0
10
-0.589122
20
-0.338830
0
VERTEX
8
0
10
-0.589859
20
-0.339435
0
VERTEX
8
0
10
-0.590709
20
-0.339890
0
VERTEX
8
0
10
-0.591655
20
-0.340176
0
VERTEX
8
0
10
-0.592677
20
-0.340276
0
SEQEND
8
0
0
POLYLINE
8
0
66
1
70
1
40
0
41
0
0
VERTEX
8
0
10
-0.492677
20
-0.340276
0
VERTEX
8
0
10
-0.572677
20
-0.340276
0
VERTEX
8
0
10
-0.573700
20
-0.340176
0
VERTEX
8
0
10
-0.574645
20
-0.339890
0
VERTEX
8
0
10
-0.575495
20
-0.339435
0
VERTEX
8
0
10
-0.576232
20
-0.338830
0
VERTEX
8
0
10
-0.576837
20
-0.338093
0
VERTEX
8
0
10
-0.577291
20
-0.337243
0
VERTEX
8
0
10
-0.577578
20
-0.336298
0
VERTEX
8
0
10
-0.577677
20
-0.335276
0
VERTEX
8
0
10
-0.577677
20
-0.255276
0
VERTEX
8
0
10
-0.577578
20
-0.254253
0
VERTEX
8
0
10
-0.577291
20
-0.253308
0
VERTEX
8
0
10
-0.576837
20
-0.252458
0
VERTEX
8
0
10
-0.576232
20
-0.251721
0
VERTEX
8
0
10
-0.575495
20
-0.251116
0
VERTEX
8
0
10
-0.574645
20
-0.250661
0
VERTEX
8
0
10
-0.573700
20
-0.250375
0
VERTEX
8
0
10
-0.572677
20
-0.250276
0
VERTEX
8
0
10
-0.492677
20
-0.250276
0
VERTEX
8
0
10
-0.491655
20
-0.250375
0
VERTEX
8
0
10
-0.490709
20
-0.250661
0
VERTEX
8
0
10
-0.489859
20
-0.251116
0
VERTEX
8
0
10
-0.489122
20
-0.251721
0
VERTEX
8
0
10
-0.488518
20
-0.252458
0
VERTEX
8
0
10
-0.488063
20
-0.253308
0
VERTEX
8
0
10
-0.487777
20
-0.254253
0
VERTEX
8
0
10
-0.487677
20
-0.255276
0
VERTEX
8
0
10
-0.487677
20
-0.335276
0
VERTEX
8
0
10
-0.487777
20
-0.336298
0
VERTEX
8
0
10
-0.488063
20
-0.337243
0
VERTEX
8
0
10
-0.488518
20
-0.338093
0
VERTEX
8
0
10
-0.489122
20
-0.338830
0
VERTEX
8
0
10
-0.489859
20
-0.339435
0
VERTEX
8
0
10
-0.490709
20
-0.339890
0
VERTEX
8
0
10
-0.491655
20
-0.340176
0
VERTEX
8
0
10
-0.492677
20
-0.340276
0
SEQEND
8
0
0
POLYLINE
8
0
66
1
70
1
40
0
41
0
0
VERTEX
8
0
10
-0.392677
20
-0.340276
0
VERTEX
8
0
10
-0.472677
20
-0.340276
0
VERTEX
8
0
10
-0.473700
20
-0.340176
0
VERTEX
8
0
10
-0.474645
20
-0.339890
0
VERTEX
8
0
10
-0.475495
20
-0.339435
0
VERTEX
8
0
10
-0.476232
20
-0.338830
0
VERTEX
8
0
10
-0.476837
20
-0.338093
0
VERTEX
8
0
10
-0.477291
20
-0.337243
0
VERTEX
8
0
10
-0.477578
20
-0.336298
0
VERTEX
8
0
10
-0.477677
20
-0.335276
0
VERTEX
8
0
10
-0.477677
20
-0.255276
0
VERTEX
8
0
10
-0.477578
20
-0.254253
0
VERTEX
8
0
10
-0.477291
20
-0.253308
0
VERTEX
8
0
10
-0.476837
20
-0.252458
0
VERTEX
8
0
10
-0.476232
20
-0.251721
0
VERTEX
8
0
10
-0.475495
20
-0.251116
0
VERTEX
8
0
10
-0.474645
20
-0.250661
0
VERTEX
8
0
10
-0.473700
20
-0.250375
0
VERTEX
8
0
10
-0.472677
20
-0.250276
0
VERTEX
8
0
10
-0.392677
20
-0.250276
0
VERTEX
8
0
10
-0.391655
20
-0.250375
0
VERTEX
8
0
10
-0.390709
20
-0.250661
0
VERTEX
8
0
10
-0.389859
20
-0.251116
0
VERTEX
8
0
10
-0.389122
20
-0.251721
0
VERTEX
8
0
10
-0.388518
20
-0.252458
0
VERTEX
8
0
10
-0.388063
20
-0.253308
0
VERTEX
8
0
10
-0.387777
20
-0.254253
0
VERTEX
8
0
10
-0.387677
20
-0.255276
0
VERTEX
8
0
10
-0.387677
20
-0.335276
0
VERTEX
8
0
10
-0.387777
20
-0.336298
0
VERTEX
8
0
10
-0.388063
20
-0.337243
0
VERTEX
8
0
10
-0.388518
20
-0.338093
0
VERTEX
8
0
10
-0.389122
20
-0.338830
0
VERTEX
8
0
10
-0.389859
20
-0.339435
0
VERTEX
8
0
10
-0.390709
20
-0.339890
0
VERTEX
8
0
10
-0.391655
20
-0.340176
0
VERTEX
8
0
10
-0.392677
20
-0.340276
0
SEQEND
8
0
0
POLYLINE
8
0
66
1
70
1
40
0
41
0
0
VERTEX
8
0
10
-0.292677
20
-0.340276
0
VERTEX
8
0
10
-0.372677
20
-0.340276
0
VERTEX
8
0
10
-0.373700
20
-0.340176
0
VERTEX
8
0
10
-0.374645
20
-0.339890
0
VERTEX
8
0
10
-0.375495
20
-0.339435
0
VERTEX
8
0
10
-0.376232
20
-0.338830
0
VERTEX
8
0
10
-0.376837
20
-0.338093
0
VERTEX
8
0
10
-0.377291
20
-0.337243
0
VERTEX
8
0
10
-0.377578
20
-0.336298
0
VERTEX
8
0
10
-0.377677
20
-0.335276
0
VERTEX
8
0
10
-0.377677
20
-0.255276
0
VERTEX
8
0
10
-0.377578
20
-0.254253
0
VERTEX
8
0
10
-0.377291
20
-0.253308
0
VERTEX
8
0
10
-0.376837
20
-0.252458
0
VERTEX
8
0
10
-0.376232
20
-0.251721
0
VERTEX
8
0
10
-0.375495
20
-0.251116
0
VERTEX
8
0
10
-0.374645
20
-0.250661
0
VERTEX
8
0
10
-0.373700
20
-0.250375
0
VERTEX
8
0
10
-0.372677
20
-0.250276
0
VERTEX
8
0
10
-0.292677
20
-0.250276
0
VERTEX
8
0
10
-0.291655
20
-0.250375
0
VERTEX
8
0
10
-0.290709
20
-0.250661
0
VERTEX
8
0
10
-0.289859
20
-0.251116
0
VERTEX
8
0
10
-0.289122
20
-0.251721
0
VERTEX
8
0
10
-0.288518
20
-0.252458
0
VERTEX
8
0
10
-0.288063
20
-0.253308
0
VERTEX
8
0
10
-0.287777
20
-0.254253
0
VERTEX
8
0
10
-0.287677
20
-0.255276
0
VERTEX
8
0
10
-0.287677
20
-0.335276
0
VERTEX
8
0
10
-0.287777
20
-0.336298
0
VERTEX
8
0
10
-0.288063
20
-0.337243
0
VERTEX
8
0
10
-0.288518
20
-0.338093
0
VERTEX
8
0
10
-0.289122
20
-0.338830
0
VERTEX
8
0
10
-0.289859
20
-0.339435
0
VERTEX
8
0
10
-0.290709
20
-0.339890
0
VERTEX
8
0
10
-0.291655
20
-0.340176
0
VERTEX
8
0
10
-0.292677
20
-0.340276
0
SEQEND
8
0
0
POLYLINE
8
0
66
1
70
1
40
0
41
0
0
VERTEX
8
0
10
-0.192677
20
-0.340276
0
VERTEX
8
0
10
-0.272677
20
-0.340276
0
VERTEX
8
0
10
-0.273700
20
-0.340176
0
VERTEX
8
0
10
-0.274645
20
-0.339890
0
VERTEX
8
0
10
-0.275495
20
-0.339435
0
VERTEX
8
0
10
-0.276232
20
-0.338830
0
VERTEX
8
0
10
-0.276837
20
-0.338093
0
VERTEX
8
0
10
-0.277291
20
-0.337243
0
VERTEX
8
0
10
-0.277578
20
-0.336298
0
VERTEX
8
0
10
-0.277677
20
-0.335276
0
VERTEX
8
0
10
-0.277677
20
-0.255276
0
VERTEX
8
0
10
-0.277578
20
-0.254253
0
VERTEX
8
0
10
-0.277291
20
-0.253308
0
VERTEX
8
0
10
-0.276837
20
-0.252458
0
VERTEX
8
0
10
-0.276232
20
-0.251721
0
VERTEX
8
0
10
-0.275495
20
-0.251116
0
VERTEX
8
0
10
-0.274645
20
-0.250661
0
VERTEX
8
0
10
-0.273700
20
-0.250375
0
VERTEX
8
0
10
-0.272677
20
-0.250276
0
VERTEX
8
0
10
-0.192677
20
-0.250276
0
VERTEX
8
0
10
-0.191655
20
-0.250375
0
VERTEX
8
0
10
-0.190709
20
-0.250661
0
VERTEX
8
0
10
-0.189859
20
-0.251116
0
VERTEX
8
0
10
-0.189122
20
-0.251721
0
VERTEX
8
0
10
-0.188518
20
-0.252458
0
VERTEX
8
0
10
-0.188063
20
-0.253308
0
VERTEX
8
0
10
-0.187777
20
-0.254253
0
VERTEX
8
0
10
-0.187677
20
-0.255276
0
VERTEX
8
0
10
-0.187677
20
-0.335276
0
VERTEX
8
0
10
-0.187777
20
-0.336298
0
VERTEX
8
0
10
-0.188063
20
-0.337243
0
VERTEX
8
0
10
-0.188518
20
-0.338093
0
VERTEX
8
0
10
-0.189122
20
-0.338830
0
VERTEX
8
0
10
-0.189859
20
-0.339435
0
VERTEX
8
0
10
-0.190709
20
-0.339890
0
VERTEX
8
0
10
-0.191655
20
-0.340176
0
VERTEX
8
0
10
-0.192677
20
-0.340276
0
SEQEND
8
0
0
POLYLINE
8
0
66
1
40
0.008000
41
0.008000
0
VERTEX
8
0
10
-0.912236
20
0.658630
0
VERTEX
8
0
10
-0.807236
20
0.658630
0
VERTEX
8
0
10
-0.807236
20
0.862630
0
VERTEX
8
0
10
-0.912236
20
0.862630
0
VERTEX
8
0
10
-0.912236
20
0.658630
0
SEQEND
8
0
0
POLYLINE
8
0
66
1
40
0.008000
41
0.008000
0
VERTEX
8
0
10
-0.808236
20
0.830630
0
VERTEX
8
0
10
-0.911236
20
0.830630
0
SEQEND
8
0
0
POLYLINE
8
0
66
1
40
0.008000
41
0.008000
0
VERTEX
8
0
10
-0.860236
20
0.890630
0
VERTEX
8
0
10
-0.860236
20
0.862630
0
SEQEND
8
0
0
POLYLINE
8
0
66
1
40
0.008000
41
0.008000
0
VERTEX
8
0
10
-0.860236
20
0.658630
0
VERTEX
8
0
10
-0.860236
20
0.630630
0
SEQEND
8
0
0
TEXT
8
0
10
-0.749236
20
0.710630
40
0.048000
41
1.041667
50
90.000000
1
D1
0
POLYLINE
8
0
66
1
40
0.008000
41
0.008000
0
VERTEX
8
0
10
-0.715386
20
0.658630
0
VERTEX
8
0
10
-0.610386
20
0.658630
0
VERTEX
8
0
10
-0.610386
20
0.862630
0
VERTEX
8
0
10
-0.715386
20
0.862630
0
VERTEX
8
0
10
-0.715386
20
0.658630
0
SEQEND
8
0
0
POLYLINE
8
0
66
1
40
0.008000
41
0.008000
0
VERTEX
8
0
10
-0.611386
20
0.830630
0
VERTEX
8
0
10
-0.714386
20
0.830630
0
SEQEND
8
0
0
POLYLINE
8
0
66
1
40
0.008000
41
0.008000
0
VERTEX
8
0
10
-0.663386
20
0.890630
0
VERTEX
8
0
10
-0.663386
20
0.862630
0
SEQEND
8
0
0
POLYLINE
8
0
66
1
40
0.008000
41
0.008000
0
VERTEX
8
0
10
-0.663386
20
0.658630
0
VERTEX
8
0
10
-0.663386
20
0.630630
0
SEQEND
8
0
0
TEXT
8
0
10
-0.552386
20
0.710630
40
0.048000
41
1.041667
50
90.000000
1
D2
0
POLYLINE
8
0
66
1
40
0.008000
41
0.008000
0
VERTEX
8
0
10
-0.518535
20
0.658630
0
VERTEX
8
0
10
-0.413535
20
0.658630
0
VERTEX
8
0
10
-0.413535
20
0.862630
0
VERTEX
8
0
10
-0.518535
20
0.862630
0
VERTEX
8
0
10
-0.518535
20
0.658630
0
SEQEND
8
0
0
POLYLINE
8
0
66
1
40
0.008000
41
0.008000
0
VERTEX
8
0
10
-0.414535
20
0.830630
0
VERTEX
8
0
10
-0.517535
20
0.830630
0
SEQEND
8
0
0
POLYLINE
8
0
66
1
40
0.008000
41
0.008000
0
VERTEX
8
0
10
-0.466535
20
0.890630
0
VERTEX
8
0
10
-0.466535
20
0.862630
0
SEQEND
8
0
0
POLYLINE
8
0
66
1
40
0.008000
41
0.008000
0
VERTEX
8
0
10
-0.466535
20
0.658630
0
VERTEX
8
0
10
-0.466535
20
0.630630
0
SEQEND
8
0
0
TEXT
8
0
10
-0.355535
20
0.710630
40
0.048000
41
1.041667
50
90.000000
1
D3
0
POLYLINE
8
0
66
1
40
0.008000
41
0.008000
0
VERTEX
8
0
10
-0.321685
20
0.658630
0
VERTEX
8
0
10
-0.216685
20
0.658630
0
VERTEX
8
0
10
-0.216685
20
0.862630
0
VERTEX
8
0
10
-0.321685
20
0.862630
0
VERTEX
8
0
10
-0.321685
20
0.658630
0
SEQEND
8
0
0
POLYLINE
8
0
66
1
40
0.008000
41
0.008000
0
VERTEX
8
0
10
-0.217685
20
0.830630
0
VERTEX
8
0
10
-0.320685
20
0.830630
0
SEQEND
8
0
0
POLYLINE
8
0
66
1
40
0.008000
41
0.008000
0
VERTEX
8
0
10
-0.269685
20
0.890630
0
VERTEX
8
0
10
-0.269685
20
0.862630
0
SEQEND
8
0
0
POLYLINE
8
0
66
1
40
0.008000
41
0.008000
0
VERTEX
8
0
10
-0.269685
20
0.658630
0
VERTEX
8
0
10
-0.269685
20
0.630630
0
SEQEND
8
0
0
TEXT
8
0
10
-0.158685
20
0.710630
40
0.048000
41
1.041667
50
90.000000
1
D4
0
POLYLINE
8
0
66
1
40
0.008000
41
0.008000
0
VERTEX
8
0
10
-0.124835
20
0.658630
0
VERTEX
8
0
10
-0.019835
20
0.658630
0
VERTEX
8
0
10
-0.019835
20
0.862630
0
VERTEX
8
0
10
-0.124835
20
0.862630
0
VERTEX
8
0
10
-0.124835
20
0.658630
0
SEQEND
8
0
0
POLYLINE
8
0
66
1
40
0.008000
41
0.008000
0
VERTEX
8
0
10
-0.020835
20
0.830630
0
VERTEX
8
0
10
-0.123835
20
0.830630
0
SEQEND
8
0
0
POLYLINE
8
0
66
1
40
0.008000
41
0.008000
0
VERTEX
8
0
10
-0.072835
20
0.890630
0
VERTEX
8
0
10
-0.072835
20
0.862630
0
SEQEND
8
0
0
POLYLINE
8
0
66
1
40
0.008000
41
0.008000
0
VERTEX
8
0
10
-0.072835
20
0.658630
0
VERTEX
8
0
10
-0.072835
20
0.630630
0
SEQEND
8
0
0
TEXT
8
0
10
0.038165
20
0.710630
40
0.048000
41
1.041667
50
90.000000
1
D5
0
POLYLINE
8
0
66
1
40
0.008000
41
0.008000
0
VERTEX
8
0
10
-0.789370
20
0.112992
0
VERTEX
8
0
10
-0.789370
20
0.162992
0
SEQEND
8
0
0
POLYLINE
8
0
66
1
40
0.008000
41
0.008000
0
VERTEX
8
0
10
-0.814370
20
0.162992
0
VERTEX
8
0
10
-0.764370
20
0.162992
0
VERTEX
8
0
10
-0.764370
20
0.362992
0
VERTEX
8
0
10
-0.814370
20
0.362992
0
VERTEX
8
0
10
-0.814370
20
0.162992
0
SEQEND
8
0
0
POLYLINE
8
0
66
1
40
0.008000
41
0.008000
0
VERTEX
8
0
10
-0.789370
20
0.362992
0
VERTEX
8
0
10
-0.789370
20
0.412992
0
SEQEND
8
0
0
TEXT
8
0
10
-0.824370
20
0.212992
40
0.048000
41
1.041667
50
90.000000
1
R1
0
POLYLINE
8
0
66
1
40
0.008000
41
0.008000
0
VERTEX
8
0
10
-0.663386
20
0.026378
0
VERTEX
8
0
10
-0.663386
20
0.076378
0
SEQEND
8
0
0
POLYLINE
8
0
66
1
40
0.008000
41
0.008000
0
VERTEX
8
0
10
-0.688386
20
0.076378
0
VERTEX
8
0
10
-0.638386
20
0.076378
0
VERTEX
8
0
10
-0.638386
20
0.276378
0
VERTEX
8
0
10
-0.688386
20
0.276378
0
VERTEX
8
0
10
-0.688386
20
0.076378
0
SEQEND
8
0
0
POLYLINE
8
0
66
1
40
0.008000
41
0.008000
0
VERTEX
8
0
10
-0.663386
20
0.276378
0
VERTEX
8
0
10
-0.663386
20
0.326378
0
SEQEND
8
0
0
TEXT
8
0
10
-0.584213
20
0.130315
40
0.048000
41
1.041667
50
90.000000
1
R2
0
POLYLINE
8
0
66
1
40
0.008000
41
0.008000
0
VERTEX
8
0
10
-0.466535
20
0.026378
0
VERTEX
8
0
10
-0.466535
20
0.076378
0
SEQEND
8
0
0
POLYLINE
8
0
66
1
40
0.008000
41
0.008000
0
VERTEX
8
0
10
-0.491535
20
0.076378
0
VERTEX
8
0
10
-0.441535
20
0.076378
0
VERTEX
8
0
10
-0.441535
20
0.276378
0
VERTEX
8
0
10
-0.491535
20
0.276378
0
VERTEX
8
0
10
-0.491535
20
0.076378
0
SEQEND
8
0
0
POLYLINE
8
0
66
1
40
0.008000
41
0.008000
0
VERTEX
8
0
10
-0.466535
20
0.276378
0
VERTEX
8
0
10
-0.466535
20
0.326378
0
SEQEND
8
0
0
TEXT
8
0
10
-0.501535
20
0.126378
40
0.048000
41
1.041667
50
90.000000
1
R3
0
POLYLINE
8
0
66
1
40
0.008000
41
0.008000
0
VERTEX
8
0
10
-0.269685
20
0.026378
0
VERTEX
8
0
10
-0.269685
20
0.076378
0
SEQEND
8
0
0
POLYLINE
8
0
66
1
40
0.008000
41
0.008000
0
VERTEX
8
0
10
-0.294685
20
0.076378
0
VERTEX
8
0
10
-0.244685
20
0.076378
0
VERTEX
8
0
10
-0.244685
20
0.276378
0
VERTEX
8
0
10
-0.294685
20
0.276378
0
VERTEX
8
0
10
-0.294685
20
0.076378
0
SEQEND
8
0
0
POLYLINE
8
0
66
1
40
0.008000
41
0.008000
0
VERTEX
8
0
10
-0.269685
20
0.276378
0
VERTEX
8
0
10
-0.269685
20
0.326378
0
SEQEND
8
0
0
TEXT
8
0
10
-0.304685
20
0.126378
40
0.048000
41
1.041667
50
90.000000
1
R4
0
POLYLINE
8
0
66
1
40
0.008000
41
0.008000
0
VERTEX
8
0
10
-0.072835
20
0.026378
0
VERTEX
8
0
10
-0.072835
20
0.076378
0
SEQEND
8
0
0
POLYLINE
8
0
66
1
40
0.008000
41
0.008000
0
VERTEX
8
0
10
-0.097835
20
0.076378
0
VERTEX
8
0
10
-0.047835
20
0.076378
0
VERTEX
8
0
10
-0.047835
20
0.276378
0
VERTEX
8
0
10
-0.097835
20
0.276378
0
VERTEX
8
0
10
-0.097835
20
0.076378
0
SEQEND
8
0
0
POLYLINE
8
0
66
1
40
0.008000
41
0.008000
0
VERTEX
8
0
10
-0.072835
20
0.276378
0
VERTEX
8
0
10
-0.072835
20
0.326378
0
SEQEND
8
0
0
TEXT
8
0
10
-0.107835
20
0.126378
40
0.048000
41
1.041667
50
90.000000
1
R5
0
POLYLINE
8
0
66
1
40
0.008000
41
0.008000
0
VERTEX
8
0
10
-1.309055
20
-0.779528
0
VERTEX
8
0
10
0.206693
20
-0.779528
0
VERTEX
8
0
10
0.206693
20
1.051181
0
VERTEX
8
0
10
-1.309055
20
1.051181
0
VERTEX
8
0
10
-1.309055
20
-0.779528
0
SEQEND
8
0
0
POLYLINE
8
0
66
1
40
0.008000
41
0.008000
0
VERTEX
8
0
10
-1.212205
20
0.096850
0
VERTEX
8
0
10
-0.962205
20
0.096850
0
VERTEX
8
0
10
-0.962205
20
0.396850
0
VERTEX
8
0
10
-1.212205
20
0.396850
0
VERTEX
8
0
10
-1.212205
20
0.096850
0
SEQEND
8
0
0
POLYLINE
8
0
66
1
40
0.008000
41
0.008000
0
VERTEX
8
0
10
-1.012205
20
0.396850
0
VERTEX
8
0
10
-1.012205
20
0.096850
0
SEQEND
8
0
0
TEXT
8
0
10
-0.904205
20
0.196850
40
0.048000
41
1.041667
50
90.000000
1
J3
0
POLYLINE
8
0
66
1
40
0.008000
41
0.008000
0
VERTEX
8
0
10
1.305118
20
-1.051181
0
VERTEX
8
0
10
1.309055
20
-1.051181
0
VERTEX
8
0
10
1.309055
20
-1.047244
0
VERTEX
8
0
10
1.305118
20
-1.047244
0
VERTEX
8
0
10
1.305118
20
-1.051181
0
SEQEND
8
0
0
POLYLINE
8
0
66
1
40
0.008000
41
0.008000
0
VERTEX
8
0
10
-1.229528
20
-0.649606
0
VERTEX
8
0
10
-0.135039
20
-0.649606
0
VERTEX
8
0
10
-0.135039
20
-0.216535
0
VERTEX
8
0
10
-1.229528
20
-0.216535
0
VERTEX
8
0
10
-1.229528
20
-0.649606
0
SEQEND
8
0
0
POLYLINE
8
0
66
1
40
0.008000
41
0.008000
0
VERTEX
8
0
10
-1.183465
20
-0.636614
0
VERTEX
8
0
10
-0.183465
20
-0.636614
0
VERTEX
8
0
10
-0.183465
20
-0.536614
0
VERTEX
8
0
10
-1.183465
20
-0.536614
0
VERTEX
8
0
10
-1.183465
20
-0.636614
0
SEQEND
8
0
0
POLYLINE
8
0
66
1
40
0.008000
41
0.008000
0
VERTEX
8
0
10
-1.182677
20
-0.345276
0
VERTEX
8
0
10
-0.182677
20
-0.345276
0
VERTEX
8
0
10
-0.182677
20
-0.245276
0
VERTEX
8
0
10
-1.182677
20
-0.245276
0
VERTEX
8
0
10
-1.182677
20
-0.345276
0
SEQEND
8
0
0
POLYLINE
8
0
66
1
40
0.008000
41
0.008000
0
VERTEX
8
0
10
-0.198031
20
-0.472441
0
VERTEX
8
0
10
-0.131102
20
-0.472441
0
VERTEX
8
0
10
-0.131102
20
-0.397638
0
VERTEX
8
0
10
-0.198031
20
-0.397638
0
VERTEX
8
0
10
-0.198031
20
-0.472441
0
SEQEND
8
0
0
TEXT
8
0
10
-0.730315
20
-0.707606
40
0.048000
41
1.041667
1
U1
0
POLYLINE
8
0
66
1
40
0.008000
41
0.008000
0
VERTEX
8
0
10
-0.912236
20
0.658630
0
VERTEX
8
0
10
-0.807236
20
0.658630
0
VERTEX
8
0
10
-0.807236
20
0.862630
0
VERTEX
8
0
10
-0.912236
20
0.862630
0
VERTEX
8
0
10
-0.912236
20
0.658630
0
SEQEND
8
0
0
POLYLINE
8
0
66
1
40
0.008000
41
0.008000
0
VERTEX
8
0
10
-0.808236
20
0.830630
0
VERTEX
8
0
10
-0.911236
20
0.830630
0
SEQEND
8
0
0
POLYLINE
8
0
66
1
40
0.008000
41
0.008000
0
VERTEX
8
0
10
-0.860236
20
0.890630
0
VERTEX
8
0
10
-0.860236
20
0.862630
0
SEQEND
8
0
0
POLYLINE
8
0
66
1
40
0.008000
41
0.008000
0
VERTEX
8
0
10
-0.860236
20
0.658630
0
VERTEX
8
0
10
-0.860236
20
0.630630
0
SEQEND
8
0
0
TEXT
8
0
10
-0.749236
20
0.710630
40
0.048000
41
1.041667
50
90.000000
1
D1
0
POLYLINE
8
0
66
1
40
0.008000
41
0.008000
0
VERTEX
8
0
10
-0.715386
20
0.658630
0
VERTEX
8
0
10
-0.610386
20
0.658630
0
VERTEX
8
0
10
-0.610386
20
0.862630
0
VERTEX
8
0
10
-0.715386
20
0.862630
0
VERTEX
8
0
10
-0.715386
20
0.658630
0
SEQEND
8
0
0
POLYLINE
8
0
66
1
40
0.008000
41
0.008000
0
VERTEX
8
0
10
-0.611386
20
0.830630
0
VERTEX
8
0
10
-0.714386
20
0.830630
0
SEQEND
8
0
0
POLYLINE
8
0
66
1
40
0.008000
41
0.008000
0
VERTEX
8
0
10
-0.663386
20
0.890630
0
VERTEX
8
0
10
-0.663386
20
0.862630
0
SEQEND
8
0
0
POLYLINE
8
0
66
1
40
0.008000
41
0.008000
0
VERTEX
8
0
10
-0.663386
20
0.658630
0
VERTEX
8
0
10
-0.663386
20
0.630630
0
SEQEND
8
0
0
TEXT
8
0
10
-0.552386
20
0.710630
40
0.048000
41
1.041667
50
90.000000
1
D2
0
POLYLINE
8
0
66
1
40
0.008000
41
0.008000
0
VERTEX
8
0
10
-0.518535
20
0.658630
0
VERTEX
8
0
10
-0.413535
20
0.658630
0
VERTEX
8
0
10
-0.413535
20
0.862630
0
VERTEX
8
0
10
-0.518535
20
0.862630
0
VERTEX
8
0
10
-0.518535
20
0.658630
0
SEQEND
8
0
0
POLYLINE
8
0
66
1
40
0.008000
41
0.008000
0
VERTEX
8
0
10
-0.414535
20
0.830630
0
VERTEX
8
0
10
-0.517535
20
0.830630
0
SEQEND
8
0
0
POLYLINE
8
0
66
1
40
0.008000
41
0.008000
0
VERTEX
8
0
10
-0.466535
20
0.890630
0
VERTEX
8
0
10
-0.466535
20
0.862630
0
SEQEND
8
0
0
POLYLINE
8
0
66
1
40
0.008000
41
0.008000
0
VERTEX
8
0
10
-0.466535
20
0.658630
0
VERTEX
8
0
10
-0.466535
20
0.630630
0
SEQEND
8
0
0
TEXT
8
0
10
-0.355535
20
0.710630
40
0.048000
41
1.041667
50
90.000000
1
D3
0
POLYLINE
8
0
66
1
40
0.008000
41
0.008000
0
VERTEX
8
0
10
-0.321685
20
0.658630
0
VERTEX
8
0
10
-0.216685
20
0.658630
0
VERTEX
8
0
10
-0.216685
20
0.862630
0
VERTEX
8
0
10
-0.321685
20
0.862630
0
VERTEX
8
0
10
-0.321685
20
0.658630
0
SEQEND
8
0
0
POLYLINE
8
0
66
1
40
0.008000
41
0.008000
0
VERTEX
8
0
10
-0.217685
20
0.830630
0
VERTEX
8
0
10
-0.320685
20
0.830630
0
SEQEND
8
0
0
POLYLINE
8
0
66
1
40
0.008000
41
0.008000
0
VERTEX
8
0
10
-0.269685
20
0.890630
0
VERTEX
8
0
10
-0.269685
20
0.862630
0
SEQEND
8
0
0
POLYLINE
8
0
66
1
40
0.008000
41
0.008000
0
VERTEX
8
0
10
-0.269685
20
0.658630
0
VERTEX
8
0
10
-0.269685
20
0.630630
0
SEQEND
8
0
0
TEXT
8
0
10
-0.158685
20
0.710630
40
0.048000
41
1.041667
50
90.000000
1
D4
0
POLYLINE
8
0
66
1
40
0.008000
41
0.008000
0
VERTEX
8
0
10
-0.124835
20
0.658630
0
VERTEX
8
0
10
-0.019835
20
0.658630
0
VERTEX
8
0
10
-0.019835
20
0.862630
0
VERTEX
8
0
10
-0.124835
20
0.862630
0
VERTEX
8
0
10
-0.124835
20
0.658630
0
SEQEND
8
0
0
POLYLINE
8
0
66
1
40
0.008000
41
0.008000
0
VERTEX
8
0
10
-0.020835
20
0.830630
0
VERTEX
8
0
10
-0.123835
20
0.830630
0
SEQEND
8
0
0
POLYLINE
8
0
66
1
40
0.008000
41
0.008000
0
VERTEX
8
0
10
-0.072835
20
0.890630
0
VERTEX
8
0
10
-0.072835
20
0.862630
0
SEQEND
8
0
0
POLYLINE
8
0
66
1
40
0.008000
41
0.008000
0
VERTEX
8
0
10
-0.072835
20
0.658630
0
VERTEX
8
0
10
-0.072835
20
0.630630
0
SEQEND
8
0
0
TEXT
8
0
10
0.038165
20
0.710630
40
0.048000
41
1.041667
50
90.000000
1
D5
0
POLYLINE
8
0
66
1
40
0.008000
41
0.008000
0
VERTEX
8
0
10
-0.789370
20
0.112992
0
VERTEX
8
0
10
-0.789370
20
0.162992
0
SEQEND
8
0
0
POLYLINE
8
0
66
1
40
0.008000
41
0.008000
0
VERTEX
8
0
10
-0.814370
20
0.162992
0
VERTEX
8
0
10
-0.764370
20
0.162992
0
VERTEX
8
0
10
-0.764370
20
0.362992
0
VERTEX
8
0
10
-0.814370
20
0.362992
0
VERTEX
8
0
10
-0.814370
20
0.162992
0
SEQEND
8
0
0
POLYLINE
8
0
66
1
40
0.008000
41
0.008000
0
VERTEX
8
0
10
-0.789370
20
0.362992
0
VERTEX
8
0
10
-0.789370
20
0.412992
0
SEQEND
8
0
0
TEXT
8
0
10
-0.824370
20
0.212992
40
0.048000
41
1.041667
50
90.000000
1
R1
0
POLYLINE
8
0
66
1
40
0.008000
41
0.008000
0
VERTEX
8
0
10
-0.663386
20
0.026378
0
VERTEX
8
0
10
-0.663386
20
0.076378
0
SEQEND
8
0
0
POLYLINE
8
0
66
1
40
0.008000
41
0.008000
0
VERTEX
8
0
10
-0.688386
20
0.076378
0
VERTEX
8
0
10
-0.638386
20
0.076378
0
VERTEX
8
0
10
-0.638386
20
0.276378
0
VERTEX
8
0
10
-0.688386
20
0.276378
0
VERTEX
8
0
10
-0.688386
20
0.076378
0
SEQEND
8
0
0
POLYLINE
8
0
66
1
40
0.008000
41
0.008000
0
VERTEX
8
0
10
-0.663386
20
0.276378
0
VERTEX
8
0
10
-0.663386
20
0.326378
0
SEQEND
8
0
0
TEXT
8
0
10
-0.584213
20
0.130315
40
0.048000
41
1.041667
50
90.000000
1
R2
0
POLYLINE
8
0
66
1
40
0.008000
41
0.008000
0
VERTEX
8
0
10
-0.466535
20
0.026378
0
VERTEX
8
0
10
-0.466535
20
0.076378
0
SEQEND
8
0
0
POLYLINE
8
0
66
1
40
0.008000
41
0.008000
0
VERTEX
8
0
10
-0.491535
20
0.076378
0
VERTEX
8
0
10
-0.441535
20
0.076378
0
VERTEX
8
0
10
-0.441535
20
0.276378
0
VERTEX
8
0
10
-0.491535
20
0.276378
0
VERTEX
8
0
10
-0.491535
20
0.076378
0
SEQEND
8
0
0
POLYLINE
8
0
66
1
40
0.008000
41
0.008000
0
VERTEX
8
0
10
-0.466535
20
0.276378
0
VERTEX
8
0
10
-0.466535
20
0.326378
0
SEQEND
8
0
0
TEXT
8
0
10
-0.501535
20
0.126378
40
0.048000
41
1.041667
50
90.000000
1
R3
0
POLYLINE
8
0
66
1
40
0.008000
41
0.008000
0
VERTEX
8
0
10
-0.269685
20
0.026378
0
VERTEX
8
0
10
-0.269685
20
0.076378
0
SEQEND
8
0
0
POLYLINE
8
0
66
1
40
0.008000
41
0.008000
0
VERTEX
8
0
10
-0.294685
20
0.076378
0
VERTEX
8
0
10
-0.244685
20
0.076378
0
VERTEX
8
0
10
-0.244685
20
0.276378
0
VERTEX
8
0
10
-0.294685
20
0.276378
0
VERTEX
8
0
10
-0.294685
20
0.076378
0
SEQEND
8
0
0
POLYLINE
8
0
66
1
40
0.008000
41
0.008000
0
VERTEX
8
0
10
-0.269685
20
0.276378
0
VERTEX
8
0
10
-0.269685
20
0.326378
0
SEQEND
8
0
0
TEXT
8
0
10
-0.304685
20
0.126378
40
0.048000
41
1.041667
50
90.000000
1
R4
0
POLYLINE
8
0
66
1
40
0.008000
41
0.008000
0
VERTEX
8
0
10
-0.072835
20
0.026378
0
VERTEX
8
0
10
-0.072835
20
0.076378
0
SEQEND
8
0
0
POLYLINE
8
0
66
1
40
0.008000
41
0.008000
0
VERTEX
8
0
10
-0.097835
20
0.076378
0
VERTEX
8
0
10
-0.047835
20
0.076378
0
VERTEX
8
0
10
-0.047835
20
0.276378
0
VERTEX
8
0
10
-0.097835
20
0.276378
0
VERTEX
8
0
10
-0.097835
20
0.076378
0
SEQEND
8
0
0
POLYLINE
8
0
66
1
40
0.008000
41
0.008000
0
VERTEX
8
0
10
-0.072835
20
0.276378
0
VERTEX
8
0
10
-0.072835
20
0.326378
0
SEQEND
8
0
0
TEXT
8
0
10
-0.107835
20
0.126378
40
0.048000
41
1.041667
50
90.000000
1
R5
0
POLYLINE
8
0
66
1
40
0.008000
41
0.008000
0
VERTEX
8
0
10
-1.309055
20
-0.779528
0
VERTEX
8
0
10
0.206693
20
-0.779528
0
VERTEX
8
0
10
0.206693
20
1.051181
0
VERTEX
8
0
10
-1.309055
20
1.051181
0
VERTEX
8
0
10
-1.309055
20
-0.779528
0
SEQEND
8
0
0
POLYLINE
8
0
66
1
40
0.008000
41
0.008000
0
VERTEX
8
0
10
-1.212205
20
0.096850
0
VERTEX
8
0
10
-0.962205
20
0.096850
0
VERTEX
8
0
10
-0.962205
20
0.396850
0
VERTEX
8
0
10
-1.212205
20
0.396850
0
VERTEX
8
0
10
-1.212205
20
0.096850
0
SEQEND
8
0
0
POLYLINE
8
0
66
1
40
0.008000
41
0.008000
0
VERTEX
8
0
10
-1.012205
20
0.396850
0
VERTEX
8
0
10
-1.012205
20
0.096850
0
SEQEND
8
0
0
TEXT
8
0
10
-0.904205
20
0.196850
40
0.048000
41
1.041667
50
90.000000
1
J3
0
POLYLINE
8
0
66
1
40
0.008000
41
0.008000
0
VERTEX
8
0
10
1.305118
20
-1.051181
0
VERTEX
8
0
10
1.309055
20
-1.051181
0
VERTEX
8
0
10
1.309055
20
-1.047244
0
VERTEX
8
0
10
1.305118
20
-1.047244
0
VERTEX
8
0
10
1.305118
20
-1.051181
0
SEQEND
8
0
0
POLYLINE
8
0
66
1
40
0.008000
41
0.008000
0
VERTEX
8
0
10
-1.229528
20
-0.649606
0
VERTEX
8
0
10
-0.135039
20
-0.649606
0
VERTEX
8
0
10
-0.135039
20
-0.216535
0
VERTEX
8
0
10
-1.229528
20
-0.216535
0
VERTEX
8
0
10
-1.229528
20
-0.649606
0
SEQEND
8
0
0
POLYLINE
8
0
66
1
40
0.008000
41
0.008000
0
VERTEX
8
0
10
-1.183465
20
-0.636614
0
VERTEX
8
0
10
-0.183465
20
-0.636614
0
VERTEX
8
0
10
-0.183465
20
-0.536614
0
VERTEX
8
0
10
-1.183465
20
-0.536614
0
VERTEX
8
0
10
-1.183465
20
-0.636614
0
SEQEND
8
0
0
POLYLINE
8
0
66
1
40
0.008000
41
0.008000
0
VERTEX
8
0
10
-1.182677
20
-0.345276
0
VERTEX
8
0
10
-0.182677
20
-0.345276
0
VERTEX
8
0
10
-0.182677
20
-0.245276
0
VERTEX
8
0
10
-1.182677
20
-0.245276
0
VERTEX
8
0
10
-1.182677
20
-0.345276
0
SEQEND
8
0
0
POLYLINE
8
0
66
1
40
0.008000
41
0.008000
0
VERTEX
8
0
10
-0.198031
20
-0.472441
0
VERTEX
8
0
10
-0.131102
20
-0.472441
0
VERTEX
8
0
10
-0.131102
20
-0.397638
0
VERTEX
8
0
10
-0.198031
20
-0.397638
0
VERTEX
8
0
10
-0.198031
20
-0.472441
0
SEQEND
8
0
0
TEXT
8
0
10
-0.730315
20
-0.707606
40
0.048000
41
1.041667
1
U1
0
ENDSEC
0
EOF

