G04 PROTEUS GERBER X2 FILE*
%TF.GenerationSoftware,Labcenter,Proteus,8.9-SP0-Build27865*%
%TF.CreationDate,2020-09-01T01:31:35+00:00*%
%TF.FileFunction,Legend,Top*%
%TF.FilePolarity,Positive*%
%TF.Part,Single*%
%TF.SameCoordinates,{645d2930-4b01-4661-932c-4068817f58a5}*%
%FSLAX45Y45*%
%MOMM*%
G01*
%TA.AperFunction,Material*%
%ADD15C,0.203200*%
%TD.AperFunction*%
D15*
X-8632080Y+7482920D02*
X-8365380Y+7482920D01*
X-8365380Y+8001080D01*
X-8632080Y+8001080D01*
X-8632080Y+7482920D01*
X-8367920Y+7919800D02*
X-8629540Y+7919800D01*
X-8500000Y+8072200D02*
X-8500000Y+8001080D01*
X-8500000Y+7482920D02*
X-8500000Y+7411800D01*
X-8233300Y+7615000D02*
X-8324740Y+7615000D01*
X-8324740Y+7678500D01*
X-8294260Y+7710250D01*
X-8263780Y+7710250D01*
X-8233300Y+7678500D01*
X-8233300Y+7615000D01*
X-8294260Y+7773750D02*
X-8324740Y+7805500D01*
X-8233300Y+7805500D01*
X-8132080Y+7482920D02*
X-7865380Y+7482920D01*
X-7865380Y+8001080D01*
X-8132080Y+8001080D01*
X-8132080Y+7482920D01*
X-7867920Y+7919800D02*
X-8129540Y+7919800D01*
X-8000000Y+8072200D02*
X-8000000Y+8001080D01*
X-8000000Y+7482920D02*
X-8000000Y+7411800D01*
X-7733300Y+7615000D02*
X-7824740Y+7615000D01*
X-7824740Y+7678500D01*
X-7794260Y+7710250D01*
X-7763780Y+7710250D01*
X-7733300Y+7678500D01*
X-7733300Y+7615000D01*
X-7809500Y+7757875D02*
X-7824740Y+7773750D01*
X-7824740Y+7821375D01*
X-7809500Y+7837250D01*
X-7794260Y+7837250D01*
X-7779020Y+7821375D01*
X-7779020Y+7773750D01*
X-7763780Y+7757875D01*
X-7733300Y+7757875D01*
X-7733300Y+7837250D01*
X-7632080Y+7482920D02*
X-7365380Y+7482920D01*
X-7365380Y+8001080D01*
X-7632080Y+8001080D01*
X-7632080Y+7482920D01*
X-7367920Y+7919800D02*
X-7629540Y+7919800D01*
X-7500000Y+8072200D02*
X-7500000Y+8001080D01*
X-7500000Y+7482920D02*
X-7500000Y+7411800D01*
X-7233300Y+7615000D02*
X-7324740Y+7615000D01*
X-7324740Y+7678500D01*
X-7294260Y+7710250D01*
X-7263780Y+7710250D01*
X-7233300Y+7678500D01*
X-7233300Y+7615000D01*
X-7309500Y+7757875D02*
X-7324740Y+7773750D01*
X-7324740Y+7821375D01*
X-7309500Y+7837250D01*
X-7294260Y+7837250D01*
X-7279020Y+7821375D01*
X-7263780Y+7837250D01*
X-7248540Y+7837250D01*
X-7233300Y+7821375D01*
X-7233300Y+7773750D01*
X-7248540Y+7757875D01*
X-7279020Y+7789625D02*
X-7279020Y+7821375D01*
X-7132080Y+7482920D02*
X-6865380Y+7482920D01*
X-6865380Y+8001080D01*
X-7132080Y+8001080D01*
X-7132080Y+7482920D01*
X-6867920Y+7919800D02*
X-7129540Y+7919800D01*
X-7000000Y+8072200D02*
X-7000000Y+8001080D01*
X-7000000Y+7482920D02*
X-7000000Y+7411800D01*
X-6733300Y+7615000D02*
X-6824740Y+7615000D01*
X-6824740Y+7678500D01*
X-6794260Y+7710250D01*
X-6763780Y+7710250D01*
X-6733300Y+7678500D01*
X-6733300Y+7615000D01*
X-6763780Y+7837250D02*
X-6763780Y+7742000D01*
X-6824740Y+7805500D01*
X-6733300Y+7805500D01*
X-6632080Y+7482920D02*
X-6365380Y+7482920D01*
X-6365380Y+8001080D01*
X-6632080Y+8001080D01*
X-6632080Y+7482920D01*
X-6367920Y+7919800D02*
X-6629540Y+7919800D01*
X-6500000Y+8072200D02*
X-6500000Y+8001080D01*
X-6500000Y+7482920D02*
X-6500000Y+7411800D01*
X-6233300Y+7615000D02*
X-6324740Y+7615000D01*
X-6324740Y+7678500D01*
X-6294260Y+7710250D01*
X-6263780Y+7710250D01*
X-6233300Y+7678500D01*
X-6233300Y+7615000D01*
X-6324740Y+7837250D02*
X-6324740Y+7757875D01*
X-6294260Y+7757875D01*
X-6294260Y+7821375D01*
X-6279020Y+7837250D01*
X-6248540Y+7837250D01*
X-6233300Y+7821375D01*
X-6233300Y+7773750D01*
X-6248540Y+7757875D01*
X-8320000Y+6097000D02*
X-8320000Y+6224000D01*
X-8383500Y+6224000D02*
X-8256500Y+6224000D01*
X-8256500Y+6732000D01*
X-8383500Y+6732000D01*
X-8383500Y+6224000D01*
X-8320000Y+6732000D02*
X-8320000Y+6859000D01*
X-8424140Y+6351000D02*
X-8515580Y+6351000D01*
X-8515580Y+6430375D01*
X-8500340Y+6446250D01*
X-8485100Y+6446250D01*
X-8469860Y+6430375D01*
X-8469860Y+6351000D01*
X-8469860Y+6430375D02*
X-8454620Y+6446250D01*
X-8424140Y+6446250D01*
X-8485100Y+6509750D02*
X-8515580Y+6541500D01*
X-8424140Y+6541500D01*
X-8000000Y+5877000D02*
X-8000000Y+6004000D01*
X-8063500Y+6004000D02*
X-7936500Y+6004000D01*
X-7936500Y+6512000D01*
X-8063500Y+6512000D01*
X-8063500Y+6004000D01*
X-8000000Y+6512000D02*
X-8000000Y+6639000D01*
X-7814140Y+6141000D02*
X-7905580Y+6141000D01*
X-7905580Y+6220375D01*
X-7890340Y+6236250D01*
X-7875100Y+6236250D01*
X-7859860Y+6220375D01*
X-7859860Y+6141000D01*
X-7859860Y+6220375D02*
X-7844620Y+6236250D01*
X-7814140Y+6236250D01*
X-7890340Y+6283875D02*
X-7905580Y+6299750D01*
X-7905580Y+6347375D01*
X-7890340Y+6363250D01*
X-7875100Y+6363250D01*
X-7859860Y+6347375D01*
X-7859860Y+6299750D01*
X-7844620Y+6283875D01*
X-7814140Y+6283875D01*
X-7814140Y+6363250D01*
X-7500000Y+5877000D02*
X-7500000Y+6004000D01*
X-7563500Y+6004000D02*
X-7436500Y+6004000D01*
X-7436500Y+6512000D01*
X-7563500Y+6512000D01*
X-7563500Y+6004000D01*
X-7500000Y+6512000D02*
X-7500000Y+6639000D01*
X-7604140Y+6131000D02*
X-7695580Y+6131000D01*
X-7695580Y+6210375D01*
X-7680340Y+6226250D01*
X-7665100Y+6226250D01*
X-7649860Y+6210375D01*
X-7649860Y+6131000D01*
X-7649860Y+6210375D02*
X-7634620Y+6226250D01*
X-7604140Y+6226250D01*
X-7680340Y+6273875D02*
X-7695580Y+6289750D01*
X-7695580Y+6337375D01*
X-7680340Y+6353250D01*
X-7665100Y+6353250D01*
X-7649860Y+6337375D01*
X-7634620Y+6353250D01*
X-7619380Y+6353250D01*
X-7604140Y+6337375D01*
X-7604140Y+6289750D01*
X-7619380Y+6273875D01*
X-7649860Y+6305625D02*
X-7649860Y+6337375D01*
X-7000000Y+5877000D02*
X-7000000Y+6004000D01*
X-7063500Y+6004000D02*
X-6936500Y+6004000D01*
X-6936500Y+6512000D01*
X-7063500Y+6512000D01*
X-7063500Y+6004000D01*
X-7000000Y+6512000D02*
X-7000000Y+6639000D01*
X-7104140Y+6131000D02*
X-7195580Y+6131000D01*
X-7195580Y+6210375D01*
X-7180340Y+6226250D01*
X-7165100Y+6226250D01*
X-7149860Y+6210375D01*
X-7149860Y+6131000D01*
X-7149860Y+6210375D02*
X-7134620Y+6226250D01*
X-7104140Y+6226250D01*
X-7134620Y+6353250D02*
X-7134620Y+6258000D01*
X-7195580Y+6321500D01*
X-7104140Y+6321500D01*
X-6500000Y+5877000D02*
X-6500000Y+6004000D01*
X-6563500Y+6004000D02*
X-6436500Y+6004000D01*
X-6436500Y+6512000D01*
X-6563500Y+6512000D01*
X-6563500Y+6004000D01*
X-6500000Y+6512000D02*
X-6500000Y+6639000D01*
X-6604140Y+6131000D02*
X-6695580Y+6131000D01*
X-6695580Y+6210375D01*
X-6680340Y+6226250D01*
X-6665100Y+6226250D01*
X-6649860Y+6210375D01*
X-6649860Y+6131000D01*
X-6649860Y+6210375D02*
X-6634620Y+6226250D01*
X-6604140Y+6226250D01*
X-6695580Y+6353250D02*
X-6695580Y+6273875D01*
X-6665100Y+6273875D01*
X-6665100Y+6337375D01*
X-6649860Y+6353250D01*
X-6619380Y+6353250D01*
X-6604140Y+6337375D01*
X-6604140Y+6289750D01*
X-6619380Y+6273875D01*
X-9640000Y+3830000D02*
X-5790000Y+3830000D01*
X-5790000Y+8480000D01*
X-9640000Y+8480000D01*
X-9640000Y+3830000D01*
X-9394000Y+6056000D02*
X-8759000Y+6056000D01*
X-8759000Y+6818000D01*
X-9394000Y+6818000D01*
X-9394000Y+6056000D01*
X-8886000Y+6818000D02*
X-8886000Y+6056000D01*
X-8657400Y+6310000D02*
X-8642160Y+6310000D01*
X-8626920Y+6325875D01*
X-8626920Y+6389375D01*
X-8642160Y+6405250D01*
X-8718360Y+6405250D01*
X-8703120Y+6452875D02*
X-8718360Y+6468750D01*
X-8718360Y+6516375D01*
X-8703120Y+6532250D01*
X-8687880Y+6532250D01*
X-8672640Y+6516375D01*
X-8657400Y+6532250D01*
X-8642160Y+6532250D01*
X-8626920Y+6516375D01*
X-8626920Y+6468750D01*
X-8642160Y+6452875D01*
X-8672640Y+6484625D02*
X-8672640Y+6516375D01*
X-3000000Y+3140000D02*
X-2990000Y+3140000D01*
X-2990000Y+3150000D01*
X-3000000Y+3150000D01*
X-3000000Y+3140000D01*
X-9438000Y+4160000D02*
X-6658000Y+4160000D01*
X-6658000Y+5260000D01*
X-9438000Y+5260000D01*
X-9438000Y+4160000D01*
X-9321000Y+4193000D02*
X-6781000Y+4193000D01*
X-6781000Y+4447000D01*
X-9321000Y+4447000D01*
X-9321000Y+4193000D01*
X-9319000Y+4933000D02*
X-6779000Y+4933000D01*
X-6779000Y+5187000D01*
X-9319000Y+5187000D01*
X-9319000Y+4933000D01*
X-6818000Y+4610000D02*
X-6648000Y+4610000D01*
X-6648000Y+4800000D01*
X-6818000Y+4800000D01*
X-6818000Y+4610000D01*
X-8170000Y+4119360D02*
X-8170000Y+4043160D01*
X-8154125Y+4027920D01*
X-8090625Y+4027920D01*
X-8074750Y+4043160D01*
X-8074750Y+4119360D01*
X-8011250Y+4088880D02*
X-7979500Y+4119360D01*
X-7979500Y+4027920D01*
M02*
